<?xml version="1.0" encoding="UTF-8"?>
<svg width="72px" height="72px" viewBox="0 0 72 72" version="1.1" xmlns="http://www.w3.org/2000/svg" xmlns:xlink="http://www.w3.org/1999/xlink">
    <!-- Generator: Sketch 59.1 (86144) - https://sketch.com -->
    <title>icon-feature-1-hover</title>
    <desc>Created with Sketch.</desc>
    <g id="🚀-Template-Pages" stroke="none" stroke-width="1" fill="none" fill-rule="evenodd">
        <g id="landing" transform="translate(-694.000000, -1345.000000)">
            <g id="section-features-h" transform="translate(0.000000, 1178.000000)">
                <g id="feature-1" transform="translate(670.000000, 143.000000)">
                    <g id="icon-feature-1-hover" transform="translate(24.000000, 24.000000)">
                        <circle id="bg-icon" fill="#EBCB8B" cx="36" cy="36" r="36"></circle>
                        <path d="M46.5730539,35.7081792 L49.0373426,38.1188963 C49.3766287,38.4403253 49.5016288,38.9224687 49.3944859,39.3688978 C49.2694857,39.8153269 48.9123424,40.1724702 48.4659133,40.2796132 L45.1087665,41.1367571 L46.0551962,44.4581896 C46.1801963,44.9046187 46.0551962,45.3867621 45.71591,45.7081911 C45.3944811,46.0474772 44.9123377,46.1724774 44.4659086,46.0474772 L41.144476,45.1010475 L40.2873321,48.4581944 C40.1801892,48.9046235 39.8230459,49.2617668 39.3766168,49.3867669 C39.2694738,49.4046241 39.1444736,49.4224812 39.0373307,49.4224812 C38.6980445,49.4224812 38.3587584,49.2796239 38.1266153,49.0296236 L35.7158981,46.565335 L33.305181,49.0296236 C32.983752,49.3689097 32.5016086,49.4939099 32.0551795,49.3867669 C31.5908932,49.2617668 31.2516071,48.9046235 31.1444641,48.4581944 L30.2873202,45.1010475 L26.9658877,46.0474772 C26.5194586,46.1724774 26.0373152,46.0474772 25.7158862,45.7081911 C25.3766001,45.3867621 25.2515999,44.9046187 25.3766001,44.4581896 L26.3230298,41.1367571 L22.9658829,40.2796132 C22.5194538,40.1724702 22.1623105,39.8153269 22.0373104,39.3688978 C21.9301674,38.9224687 22.0551676,38.4403253 22.3944537,38.1188963 L24.8587423,35.7081792 L22.3944537,33.297462 C22.0551676,32.9760331 21.9301674,32.4938896 22.0373104,32.0474605 C22.1623105,31.6010314 22.5194538,31.2438881 22.9658829,31.1367451 L26.3230298,30.2796013 L25.3766001,26.9581687 C25.2515999,26.5117396 25.3766001,26.0295962 25.7158862,25.7081672 C26.0373152,25.3688811 26.5194586,25.243881 26.9658877,25.3688811 L30.2873202,26.3153108 L31.1444641,22.958164 C31.2516071,22.5117349 31.6087504,22.1545916 32.0551795,22.0474486 C32.5016086,21.9224484 32.983752,22.0474486 33.305181,22.3867347 L35.7158981,24.8688805 L38.1266153,22.3867347 C38.4480442,22.0474486 38.9123305,21.9224484 39.3766168,22.0474486 C39.8230459,22.1545916 40.1801892,22.5117349 40.2873321,22.958164 L41.144476,26.3153108 L44.4659086,25.3688811 C44.9123377,25.243881 45.3944811,25.3688811 45.71591,25.7081672 C46.0551962,26.0295962 46.1801963,26.5117396 46.0551962,26.9581687 L45.1087665,30.2796013 L48.4659133,31.1367451 C48.9123424,31.2438881 49.2694857,31.6010314 49.3944859,32.0474605 C49.5016288,32.4938896 49.3766287,32.9760331 49.0373426,33.297462 L46.5730539,35.7081792 Z" id="icon-feature-1" fill="#FFFFFF" fill-rule="nonzero"></path>
                    </g>
                </g>
            </g>
        </g>
    </g>
</svg>