<?xml version="1.0" encoding="UTF-8"?>
<svg width="72px" height="72px" viewBox="0 0 72 72" version="1.1" xmlns="http://www.w3.org/2000/svg" xmlns:xlink="http://www.w3.org/1999/xlink">
    <!-- Generator: Sketch 59.1 (86144) - https://sketch.com -->
    <title>icon-feature-3-hover</title>
    <desc>Created with Sketch.</desc>
    <g id="🚀-Template-Pages" stroke="none" stroke-width="1" fill="none" fill-rule="evenodd">
        <g id="landing" transform="translate(-694.000000, -1609.000000)">
            <g id="section-features-h" transform="translate(0.000000, 1178.000000)">
                <g id="feature-3" transform="translate(670.000000, 407.000000)">
                    <g id="icon-feature-3-hover" transform="translate(24.000000, 24.000000)">
                        <circle id="Oval" fill="#EBCB8B" cx="36" cy="36" r="36"></circle>
                        <path d="M44.2857409,22 C47.12503,22 49.4286041,24.3035742 49.4286041,27.1428633 L49.4286041,44.2857409 C49.4286041,47.12503 47.12503,49.4286041 44.2857409,49.4286041 L27.1428633,49.4286041 C24.3035742,49.4286041 22,47.12503 22,44.2857409 L22,27.1428633 C22,24.3035742 24.3035742,22 27.1428633,22 L44.2857409,22 Z M43.3750255,28.5178649 C42.9285964,28.0714358 42.2143098,28.0714358 41.7678807,28.5178649 L41.7678807,28.5178649 L33.4285851,36.8571606 L29.6607234,33.0892989 C29.2142943,32.6428698 28.5000077,32.6428698 28.0535786,33.0892989 L28.0535786,33.0892989 L26.2321479,34.9107297 C25.7857188,35.3571588 25.7857188,36.0714453 26.2321479,36.5178744 L26.2321479,36.5178744 L32.6250127,42.9107392 C33.0714418,43.3571683 33.7857283,43.3571683 34.2321574,42.9107392 L34.2321574,42.9107392 L45.1964562,31.9464404 C45.6428853,31.5000113 45.6428853,30.7857248 45.1964562,30.3392957 L45.1964562,30.3392957 Z" id="icon-feature-3" fill="#FFFFFF" fill-rule="nonzero"></path>
                    </g>
                </g>
            </g>
        </g>
    </g>
</svg>