<?xml version="1.0" encoding="UTF-8"?>
<svg width="28px" height="29px" viewBox="0 0 28 29" version="1.1" xmlns="http://www.w3.org/2000/svg" xmlns:xlink="http://www.w3.org/1999/xlink">
    <!-- Generator: Sketch 59.1 (86144) - https://sketch.com -->
    <title>icon-feature-1</title>
    <desc>Created with Sketch.</desc>
    <g id="🚀-Template-Pages" stroke="none" stroke-width="1" fill="none" fill-rule="evenodd">
        <g id="landing" transform="translate(-715.000000, -1366.000000)" fill="#3B4252" fill-rule="nonzero">
            <g id="section-features-h" transform="translate(0.000000, 1178.000000)">
                <g id="feature-1" transform="translate(670.000000, 143.000000)">
                    <g id="icon-feature-1-hover" transform="translate(24.000000, 24.000000)">
                        <path d="M45.5714579,35.5714149 L48.0357465,37.9821321 C48.3750326,38.3035611 48.5000328,38.7857045 48.3928898,39.2321336 C48.2678896,39.6785627 47.9107464,40.035706 47.4643173,40.142849 L44.1071704,40.9999928 L45.0536001,44.3214254 C45.1786003,44.7678545 45.0536001,45.2499979 44.714314,45.5714269 C44.392885,45.910713 43.9107416,46.0357131 43.4643125,45.910713 L40.14288,44.9642833 L39.2857361,48.3214301 C39.1785931,48.7678593 38.8214498,49.1250025 38.3750207,49.2500027 C38.2678777,49.2678598 38.1428776,49.285717 38.0357346,49.285717 C37.6964485,49.285717 37.3571624,49.1428597 37.1250192,48.8928594 L34.7143021,46.4285707 L32.3035849,48.8928594 C31.9821559,49.2321455 31.5000125,49.3571457 31.0535834,49.2500027 C30.5892971,49.1250025 30.250011,48.7678593 30.142868,48.3214301 L29.2857242,44.9642833 L25.9642916,45.910713 C25.5178625,46.0357131 25.0357191,45.910713 24.7142901,45.5714269 C24.375004,45.2499979 24.2500039,44.7678545 24.375004,44.3214254 L25.3214337,40.9999928 L21.9642869,40.142849 C21.5178578,40.035706 21.1607145,39.6785627 21.0357143,39.2321336 C20.9285713,38.7857045 21.0535715,38.3035611 21.3928576,37.9821321 L23.8571463,35.5714149 L21.3928576,33.1606978 C21.0535715,32.8392688 20.9285713,32.3571254 21.0357143,31.9106963 C21.1607145,31.4642672 21.5178578,31.1071239 21.9642869,30.9999809 L25.3214337,30.142837 L24.375004,26.8214045 C24.2500039,26.3749754 24.375004,25.892832 24.7142901,25.571403 C25.0357191,25.2321169 25.5178625,25.1071168 25.9642916,25.2321169 L29.2857242,26.1785466 L30.142868,22.8213997 C30.250011,22.3749706 30.6071543,22.0178274 31.0535834,21.9106844 C31.5000125,21.7856842 31.9821559,21.9106844 32.3035849,22.2499705 L34.7143021,24.7321163 L37.1250192,22.2499705 C37.4464482,21.9106844 37.9107344,21.7856842 38.3750207,21.9106844 C38.8214498,22.0178274 39.1785931,22.3749706 39.2857361,22.8213997 L40.14288,26.1785466 L43.4643125,25.2321169 C43.9107416,25.1071168 44.392885,25.2321169 44.714314,25.571403 C45.0536001,25.892832 45.1786003,26.3749754 45.0536001,26.8214045 L44.1071704,30.142837 L47.4643173,30.9999809 C47.9107464,31.1071239 48.2678896,31.4642672 48.3928898,31.9106963 C48.5000328,32.3571254 48.3750326,32.8392688 48.0357465,33.1606978 L45.5714579,35.5714149 Z" id="icon-feature-1"></path>
                    </g>
                </g>
            </g>
        </g>
    </g>
</svg>