<?xml version="1.0" encoding="UTF-8"?>
<svg width="28px" height="29px" viewBox="0 0 28 29" version="1.1" xmlns="http://www.w3.org/2000/svg" xmlns:xlink="http://www.w3.org/1999/xlink">
    <!-- Generator: Sketch 59.1 (86144) - https://sketch.com -->
    <title>icon-feature-3</title>
    <desc>Created with Sketch.</desc>
    <g id="🚀-Template-Pages" stroke="none" stroke-width="1" fill="none" fill-rule="evenodd">
        <g id="landing" transform="translate(-716.000000, -1630.000000)" fill="#3B4252" fill-rule="nonzero">
            <g id="section-features-h" transform="translate(0.000000, 1178.000000)">
                <g id="feature-3" transform="translate(670.000000, 407.000000)">
                    <g id="icon-feature-3-hover" transform="translate(24.000000, 24.000000)">
                        <path d="M44.2857409,21.8571129 C47.12503,21.8571129 49.4286041,24.1606871 49.4286041,26.9999762 L49.4286041,44.1428537 C49.4286041,46.9821428 47.12503,49.285717 44.2857409,49.285717 L27.1428633,49.285717 C24.3035742,49.285717 22,46.9821428 22,44.1428537 L22,26.9999762 C22,24.1606871 24.3035742,21.8571129 27.1428633,21.8571129 L44.2857409,21.8571129 Z M43.3750255,28.3749778 C42.9285964,27.9285487 42.2143098,27.9285487 41.7678807,28.3749778 L41.7678807,28.3749778 L33.4285851,36.7142735 L29.6607234,32.9464118 C29.2142943,32.4999827 28.5000077,32.4999827 28.0535786,32.9464118 L28.0535786,32.9464118 L26.2321479,34.7678426 C25.7857188,35.2142717 25.7857188,35.9285582 26.2321479,36.3749873 L26.2321479,36.3749873 L32.6250127,42.7678521 C33.0714418,43.2142812 33.7857283,43.2142812 34.2321574,42.7678521 L34.2321574,42.7678521 L45.1964562,31.8035533 C45.6428853,31.3571242 45.6428853,30.6428376 45.1964562,30.1964085 L45.1964562,30.1964085 Z" id="icon-feature-3"></path>
                    </g>
                </g>
            </g>
        </g>
    </g>
</svg>