<?xml version="1.0" encoding="UTF-8"?>
<svg width="26px" height="26px" viewBox="0 0 26 26" version="1.1" xmlns="http://www.w3.org/2000/svg" xmlns:xlink="http://www.w3.org/1999/xlink">
    <!-- Generator: Sketch 59.1 (86144) - https://sketch.com -->
    <title>icon-feature-2</title>
    <desc>Created with Sketch.</desc>
    <g id="🚀-Template-Pages" stroke="none" stroke-width="1" fill="none" fill-rule="evenodd">
        <g id="landing" transform="translate(-715.000000, -1501.000000)" fill="#3B4252" fill-rule="nonzero">
            <g id="section-features-h" transform="translate(0.000000, 1178.000000)">
                <g id="feature-2-/-active" transform="translate(670.000000, 275.000000)">
                    <g id="icon-feature-2-hover" transform="translate(24.000000, 24.000000)">
                        <path d="M46.017887,25.8035462 L34.5893019,48.6607163 C34.3928731,49.0535739 34.0000155,49.285717 33.5714436,49.285717 C33.4821577,49.285717 33.3928719,49.2678598 33.3035861,49.2500027 C32.7857283,49.1250025 32.4285851,48.6785734 32.4285851,48.1428585 L32.4285851,37.857132 L22.1428585,37.857132 C21.6071436,37.857132 21.1607145,37.4999887 21.0357143,36.9821309 C20.9107142,36.4642732 21.1607145,35.9285582 21.6250007,35.6964151 L44.4821709,24.26783 C44.6428853,24.1785442 44.821457,24.1428299 45.0000286,24.1428299 C45.3036004,24.1428299 45.589315,24.2499729 45.803601,24.482116 C46.1607443,24.8214021 46.2500301,25.3571171 46.017887,25.8035462 Z" id="icon-feature-2"></path>
                    </g>
                </g>
            </g>
        </g>
    </g>
</svg>