<?xml version="1.0" encoding="UTF-8"?>
<svg width="258px" height="80px" viewBox="0 0 258 80" version="1.1" xmlns="http://www.w3.org/2000/svg" xmlns:xlink="http://www.w3.org/1999/xlink">
    <!-- Generator: sketchtool 58 (101010) - https://sketch.com -->
    <title>E4F52ED4-39FD-4F02-A32E-0A3DDAF2A1E3</title>
    <desc>Created with sketchtool.</desc>
    <defs>
        <linearGradient x1="50%" y1="0%" x2="50%" y2="99.1422086%" id="linearGradient-1">
            <stop stop-color="#45B0D5" offset="0%"></stop>
            <stop stop-color="#59C7ED" offset="100%"></stop>
        </linearGradient>
    </defs>
    <g id="Dashboard" stroke="none" stroke-width="1" fill="none" fill-rule="evenodd">
        <g id="Dashboard-/-Default" transform="translate(-1051.000000, -1723.000000)">
            <g id="widget-graph-type-4" transform="translate(1035.000000, 1682.000000)">
                <g id="asset-bars-all" transform="translate(16.000000, 41.000000)">
                    <g id="bar-15" transform="translate(252.000000, 0.000000)">
                        <path d="M3,0 C4.65685425,-3.04359188e-16 6,1.34314575 6,3 L6,80 L6,80 L0,80 L0,3 C-2.02906125e-16,1.34314575 1.34314575,3.04359188e-16 3,0 Z" id="bar-bg" fill="#D8D8D8"></path>
                        <path d="M3,27 C4.65685425,27 6,28.3431458 6,30 L6,80 L6,80 L0,80 L0,30 C-2.02906125e-16,28.3431458 1.34314575,27 3,27 Z" id="bar-top" fill="#4C566A"></path>
                    </g>
                    <g id="bar-14" transform="translate(234.000000, 0.000000)">
                        <path d="M3,0 C4.65685425,-3.04359188e-16 6,1.34314575 6,3 L6,80 L6,80 L0,80 L0,3 C-2.02906125e-16,1.34314575 1.34314575,3.04359188e-16 3,0 Z" id="bar-bg" fill="#D8D8D8"></path>
                        <path d="M3,18 C4.65685425,18 6,19.3431458 6,21 L6,80 L6,80 L0,80 L0,21 C-2.02906125e-16,19.3431458 1.34314575,18 3,18 Z" id="bar-top" fill="#4C566A"></path>
                    </g>
                    <g id="bar-13" transform="translate(216.000000, 0.000000)">
                        <path d="M3,0 C4.65685425,-3.04359188e-16 6,1.34314575 6,3 L6,80 L6,80 L0,80 L0,3 C-2.02906125e-16,1.34314575 1.34314575,3.04359188e-16 3,0 Z" id="bar-bg" fill="#D8D8D8"></path>
                        <path d="M3,38 C4.65685425,38 6,39.3431458 6,41 L6,80 L6,80 L0,80 L0,41 C-2.02906125e-16,39.3431458 1.34314575,38 3,38 Z" id="bar-top" fill="#4C566A"></path>
                    </g>
                    <g id="bar-12" transform="translate(198.000000, 0.000000)">
                        <path d="M3,0 C4.65685425,-3.04359188e-16 6,1.34314575 6,3 L6,80 L6,80 L0,80 L0,3 C-2.02906125e-16,1.34314575 1.34314575,3.04359188e-16 3,0 Z" id="bar-bg" fill="#D8D8D8"></path>
                        <path d="M3,42 C4.65685425,42 6,43.3431458 6,45 L6,80 L6,80 L0,80 L0,45 C-2.02906125e-16,43.3431458 1.34314575,42 3,42 Z" id="bar-top" fill="#4C566A"></path>
                    </g>
                    <g id="bar-11" transform="translate(180.000000, 0.000000)">
                        <path d="M3,0 C4.65685425,-3.04359188e-16 6,1.34314575 6,3 L6,80 L6,80 L0,80 L0,3 C-2.02906125e-16,1.34314575 1.34314575,3.04359188e-16 3,0 Z" id="bar-bg" fill="#D8D8D8"></path>
                        <path d="M3,25 C4.65685425,25 6,26.3431458 6,28 L6,80 L6,80 L0,80 L0,28 C-2.02906125e-16,26.3431458 1.34314575,25 3,25 Z" id="bar-top" fill="url(#linearGradient-1)"></path>
                    </g>
                    <g id="bar-10" transform="translate(162.000000, 0.000000)">
                        <path d="M3,0 C4.65685425,-3.04359188e-16 6,1.34314575 6,3 L6,80 L6,80 L0,80 L0,3 C-2.02906125e-16,1.34314575 1.34314575,3.04359188e-16 3,0 Z" id="bar-bg" fill="#D8D8D8"></path>
                        <path d="M3,34 C4.65685425,34 6,35.3431458 6,37 L6,80 L6,80 L0,80 L0,37 C-2.02906125e-16,35.3431458 1.34314575,34 3,34 Z" id="bar-top" fill="#4C566A"></path>
                    </g>
                    <g id="bar-9" transform="translate(144.000000, 0.000000)">
                        <path d="M3,0 C4.65685425,-3.04359188e-16 6,1.34314575 6,3 L6,80 L6,80 L0,80 L0,3 C-2.02906125e-16,1.34314575 1.34314575,3.04359188e-16 3,0 Z" id="bar-bg" fill="#D8D8D8"></path>
                        <path d="M3,15 C4.65685425,15 6,16.3431458 6,18 L6,80 L6,80 L0,80 L0,18 C-2.02906125e-16,16.3431458 1.34314575,15 3,15 Z" id="bar-top" fill="#4C566A"></path>
                    </g>
                    <g id="bar-8" transform="translate(126.000000, 0.000000)">
                        <path d="M3,0 C4.65685425,-3.04359188e-16 6,1.34314575 6,3 L6,80 L6,80 L0,80 L0,3 C-2.02906125e-16,1.34314575 1.34314575,3.04359188e-16 3,0 Z" id="bar-bg" fill="#D8D8D8"></path>
                        <path d="M3,25 C4.65685425,25 6,26.3431458 6,28 L6,80 L6,80 L0,80 L0,28 C-2.02906125e-16,26.3431458 1.34314575,25 3,25 Z" id="bar-top" fill="#4C566A"></path>
                    </g>
                    <g id="bar-7" transform="translate(108.000000, 0.000000)">
                        <path d="M3,0 C4.65685425,-3.04359188e-16 6,1.34314575 6,3 L6,80 L6,80 L0,80 L0,3 C-2.02906125e-16,1.34314575 1.34314575,3.04359188e-16 3,0 Z" id="bar-bg" fill="#D8D8D8"></path>
                        <path d="M3,13 C4.65685425,13 6,14.3431458 6,16 L6,80 L6,80 L0,80 L0,16 C-2.02906125e-16,14.3431458 1.34314575,13 3,13 Z" id="bar-top" fill="#4C566A"></path>
                    </g>
                    <g id="bar-6" transform="translate(90.000000, 0.000000)">
                        <path d="M3,0 C4.65685425,-3.04359188e-16 6,1.34314575 6,3 L6,80 L6,80 L0,80 L0,3 C-2.02906125e-16,1.34314575 1.34314575,3.04359188e-16 3,0 Z" id="bar-bg" fill="#D8D8D8"></path>
                        <path d="M3,16 C4.65685425,16 6,17.3431458 6,19 L6,80 L6,80 L0,80 L0,19 C-2.02906125e-16,17.3431458 1.34314575,16 3,16 Z" id="bar-top" fill="#4C566A"></path>
                    </g>
                    <g id="bar-5" transform="translate(72.000000, 0.000000)">
                        <path d="M3,0 C4.65685425,-3.04359188e-16 6,1.34314575 6,3 L6,80 L6,80 L0,80 L0,3 C-2.02906125e-16,1.34314575 1.34314575,3.04359188e-16 3,0 Z" id="bar-bg" fill="#D8D8D8"></path>
                        <path d="M3,39 C4.65685425,39 6,40.3431458 6,42 L6,80 L6,80 L0,80 L0,42 C-2.02906125e-16,40.3431458 1.34314575,39 3,39 Z" id="bar-top" fill="#4C566A"></path>
                    </g>
                    <g id="bar-4" transform="translate(54.000000, 0.000000)">
                        <path d="M3,0 C4.65685425,-3.04359188e-16 6,1.34314575 6,3 L6,80 L6,80 L0,80 L0,3 C-2.02906125e-16,1.34314575 1.34314575,3.04359188e-16 3,0 Z" id="bar-bg" fill="#D8D8D8"></path>
                        <path d="M3,33 C4.65685425,33 6,34.3431458 6,36 L6,80 L6,80 L0,80 L0,36 C-2.02906125e-16,34.3431458 1.34314575,33 3,33 Z" id="bar-top" fill="#4C566A"></path>
                    </g>
                    <g id="bar-3" transform="translate(36.000000, 0.000000)">
                        <path d="M3,0 C4.65685425,-3.04359188e-16 6,1.34314575 6,3 L6,80 L6,80 L0,80 L0,3 C-2.02906125e-16,1.34314575 1.34314575,3.04359188e-16 3,0 Z" id="bar-bg" fill="#D8D8D8"></path>
                        <path d="M3,40 C4.65685425,40 6,41.3431458 6,43 L6,80 L6,80 L0,80 L0,43 C-2.02906125e-16,41.3431458 1.34314575,40 3,40 Z" id="bar-top" fill="#4C566A"></path>
                    </g>
                    <g id="bar-2" transform="translate(18.000000, 0.000000)">
                        <path d="M3,0 C4.65685425,-3.04359188e-16 6,1.34314575 6,3 L6,80 L6,80 L0,80 L0,3 C-2.02906125e-16,1.34314575 1.34314575,3.04359188e-16 3,0 Z" id="bar-bg" fill="#D8D8D8"></path>
                        <path d="M3,44 C4.65685425,44 6,45.3431458 6,47 L6,80 L6,80 L0,80 L0,47 C-2.02906125e-16,45.3431458 1.34314575,44 3,44 Z" id="bar-top" fill="#4C566A"></path>
                    </g>
                    <g id="bar-1">
                        <path d="M3,0 C4.65685425,-3.04359188e-16 6,1.34314575 6,3 L6,80 L6,80 L0,80 L0,3 C-2.02906125e-16,1.34314575 1.34314575,3.04359188e-16 3,0 Z" id="bar-bg" fill="#D8D8D8"></path>
                        <path d="M3,20 C4.65685425,20 6,21.3431458 6,23 L6,80 L6,80 L0,80 L0,23 C-2.02906125e-16,21.3431458 1.34314575,20 3,20 Z" id="bar-top" fill="#4C566A"></path>
                    </g>
                </g>
            </g>
        </g>
    </g>
</svg>