<svg xmlns="http://www.w3.org/2000/svg" width="32" height="38" viewBox="0 0 32 38">
    <g fill="none" fill-rule="evenodd">
        <path fill="#FFF" fill-rule="nonzero" d="M30.74 11.174V33.87A3.13 3.13 0 0 1 27.608 37H4.13S1 37 1 33.87V4.13A3.13 3.13 0 0 1 4.13 1h16.435v7.043a3.13 3.13 0 0 0 3.13 3.13h7.044z"/>
        <path fill="#D0D7DF" fill-rule="nonzero" d="M30.74 11.174h-7.044a3.13 3.13 0 0 1-3.13-3.13V1l10.173 10.174z"/>
        <path stroke="#474C54" stroke-linecap="round" stroke-linejoin="round" stroke-width="2" d="M20.565 5.696v2.347a3.13 3.13 0 0 0 3.13 3.13h7.044"/>
        <path stroke="#474C54" stroke-linecap="round" stroke-linejoin="round" stroke-width="2" d="M1 13.522V4.13A3.13 3.13 0 0 1 4.13 1h16.435L30.74 11.174V33.87A3.13 3.13 0 0 1 27.61 37H4.13S1 37 1 33.87V13.522z"/>
        <path fill="#D0D7DF" fill-rule="nonzero" d="M18.217 26.043h-4.695a2.348 2.348 0 0 1 4.695 0z"/>
        <path fill="#A4B0C0" fill-rule="nonzero" d="M22.913 27.609H6.478a.783.783 0 0 1-.782-.783v-1.565c0-.432.35-.783.782-.783h2.528a6.859 6.859 0 0 1 .908-2.175L8.122 20.51a.789.789 0 0 1 0-1.11l1.103-1.104a.789.789 0 0 1 1.112 0l1.792 1.792a6.859 6.859 0 0 1 2.175-.908v-2.528c0-.432.35-.782.783-.782h1.565c.432 0 .783.35.783.782v2.528a6.859 6.859 0 0 1 2.175.908l1.793-1.792a.789.789 0 0 1 1.11 0l1.104 1.103a.789.789 0 0 1 0 1.111l-1.792 1.793c.426.667.733 1.403.908 2.175h2.528c.432 0 .782.35.782.783v1.565c0 .432-.35.783-.782.783h-2.348zm-9.391-1.566h4.695a2.348 2.348 0 0 0-4.695 0z"/>
        <path stroke="#474C54" stroke-linecap="round" stroke-linejoin="round" stroke-width="2" d="M22.913 27.609h2.348c.432 0 .782-.35.782-.783v-1.565a.783.783 0 0 0-.782-.783h-2.528a6.859 6.859 0 0 0-.908-2.175l1.792-1.793a.789.789 0 0 0 0-1.11l-1.103-1.104a.789.789 0 0 0-1.111 0l-1.793 1.792a6.859 6.859 0 0 0-2.175-.908v-2.528a.783.783 0 0 0-.783-.782h-1.565a.783.783 0 0 0-.783.782v2.528a6.859 6.859 0 0 0-2.175.908l-1.792-1.792a.789.789 0 0 0-1.112 0l-1.103 1.103a.789.789 0 0 0 0 1.111l1.792 1.793a6.859 6.859 0 0 0-.908 2.175H6.478a.783.783 0 0 0-.782.783v1.565c0 .432.35.783.782.783h2.348M18.217 26.043a2.348 2.348 0 0 0-4.695 0"/>
    </g>
</svg>
