<svg xmlns="http://www.w3.org/2000/svg" width="38" height="38" viewBox="0 0 38 38">
    <g fill="none" fill-rule="evenodd">
        <path fill="#FFF" fill-rule="nonzero" d="M30.014 10.926v22.142a3.054 3.054 0 0 1-3.054 3.054H4.054S1 36.122 1 33.068V4.054A3.054 3.054 0 0 1 4.054 1h16.034v6.872a3.054 3.054 0 0 0 3.054 3.054h6.872z"/>
        <path fill="#D0D7DF" fill-rule="nonzero" d="M30.014 10.926h-6.872a3.054 3.054 0 0 1-3.054-3.054V1l9.926 9.926z"/>
        <path stroke="#474C54" stroke-linecap="round" stroke-linejoin="round" stroke-width="2" d="M20.088 5.581v2.29a3.054 3.054 0 0 0 3.054 3.055h6.872"/>
        <path stroke="#474C54" stroke-linecap="round" stroke-linejoin="round" stroke-width="2" d="M17.034 36.122H4.054S1 36.122 1 33.068V4.054A3.054 3.054 0 0 1 4.054 1h16.034l9.926 9.926v2.29"/>
        <g transform="translate(16.27 16.27)">
            <circle cx="9.926" cy="9.926" r="9.926" fill="#35DC86" fill-rule="nonzero"/>
            <circle cx="9.926" cy="9.926" r="9.926" stroke="#474C54" stroke-linecap="round" stroke-linejoin="round" stroke-width="2"/>
        </g>
        <path stroke="#474C54" stroke-linecap="round" stroke-linejoin="round" stroke-width="2" d="M21.615 27.723l2.29 2.29 7.636-7.634"/>
    </g>
</svg>
