<svg xmlns="http://www.w3.org/2000/svg" width="32" height="38" viewBox="0 0 32 38">
    <g fill="none" fill-rule="evenodd">
        <path fill="#FFF" fill-rule="nonzero" d="M30.74 11.174V33.87A3.13 3.13 0 0 1 27.608 37H4.13S1 37 1 33.87V4.13A3.13 3.13 0 0 1 4.13 1h16.435v7.043a3.13 3.13 0 0 0 3.13 3.13h7.044z"/>
        <path fill="#D0D7DF" fill-rule="nonzero" d="M30.74 11.174h-7.044a3.13 3.13 0 0 1-3.13-3.13V1l10.173 10.174z"/>
        <path stroke="#474C54" stroke-linecap="round" stroke-linejoin="round" stroke-width="2" d="M20.565 5.696v2.347a3.13 3.13 0 0 0 3.13 3.13h7.044"/>
        <path stroke="#474C54" stroke-linecap="round" stroke-linejoin="round" stroke-width="2" d="M1 13.522V4.13A3.13 3.13 0 0 1 4.13 1h16.435L30.74 11.174V33.87A3.13 3.13 0 0 1 27.61 37H4.13S1 37 1 33.87V13.522z"/>
        <g transform="translate(7.26 15.087)">
            <circle cx="8.609" cy="8.609" r="1.565" fill="#F1F2F2" fill-rule="nonzero"/>
            <path fill="#D0D7DF" fill-rule="nonzero" d="M8.609 0a8.609 8.609 0 1 1 0 17.217A8.609 8.609 0 0 1 8.609 0zm1.565 8.609a1.565 1.565 0 1 0-3.13 0 1.565 1.565 0 0 0 3.13 0z"/>
            <circle cx="8.609" cy="8.609" r="8.609" stroke="#474C54" stroke-linecap="round" stroke-linejoin="round" stroke-width="2"/>
            <circle cx="8.609" cy="8.609" r="1.565" stroke="#474C54" stroke-linecap="round" stroke-linejoin="round" stroke-width="2"/>
        </g>
        <path stroke="#474C54" stroke-linecap="round" stroke-linejoin="round" stroke-width="2" d="M11.174 23.696A4.696 4.696 0 0 1 15.87 19"/>
    </g>
</svg>
