<svg xmlns="http://www.w3.org/2000/svg" width="48" height="53" viewBox="0 0 48 53">
    <g fill="none" fill-rule="evenodd">
        <path fill="#F2F2F2" fill-rule="nonzero" d="M12.376 30.245L47.736 0l-.003 51.611z" opacity=".2"/>
        <circle cx="8.323" cy="43.417" r="1" fill="#FF6584" fill-rule="nonzero"/>
        <path fill="#3F3D56" fill-rule="nonzero" stroke="#3F3D56" stroke-width="2" d="M10.744 51.578v-5.599"/>
        <circle cx="10.732" cy="45.979" r="1" fill="#3F3D56" fill-rule="nonzero"/>
        <path fill="#3F3D56" fill-rule="nonzero" d="M10.732 49.43s-.113-2.433-2.432-2.15M0 4.242h18.508v24.527H0z"/>
        <path fill="#000" fill-rule="nonzero" d="M0 4.242h18.508v24.527H0z" opacity=".1"/>
        <path fill="#EBCB8B" fill-rule="nonzero" d="M2.859 8.907h12.79v1H2.859zM2.859 11.013h12.79v1H2.859zM2.859 13.12h12.79v1H2.859zM2.859 15.227h12.79v1H2.859zM2.859 17.333h12.79v1H2.859zM2.859 19.44h12.79v1H2.859zM2.859 21.546h12.79v1H2.859zM2.859 23.653h12.79v1H2.859z" opacity=".3"/>
        <path fill="#3F3D56" fill-rule="nonzero" d="M4.1 7.147h18.508v24.527H4.1z"/>
        <path fill="#EBCB8B" fill-rule="nonzero" d="M6.959 11.812h12.79v1H6.959zM6.959 13.918h12.79v1H6.959zM6.959 16.025h12.79v1H6.959zM6.959 18.132h12.79v1H6.959zM6.959 20.238h12.79v1H6.959zM6.959 22.345h12.79v1H6.959zM6.959 24.451h12.79v1H6.959zM6.959 26.558h12.79v1H6.959z"/>
        <path stroke="#3F3D56" stroke-width="2" d="M23.72 5.81c-1.218-1.737-2.914-2.763-5.088-3.08"/>
        <path fill="#3F3D56" fill-rule="nonzero" d="M23.92 5.046l-.15-.018-.088.737-.728-.142-.029.148.887.172zM19.222 2.207l.084.125-.618.412.456.585-.119.093-.555-.714z"/>
        <path stroke="#3F3D56" stroke-width="2" d="M5.605 51.548h42.357"/>
        <path fill="#2F2E41" fill-rule="nonzero" d="M41.895 13.831l.195-1.207.202 1.22.588.018c-.403-1.461-.425-2.884-.04-4.257.28-1.002.026-2.111-.7-2.74a2.056 2.056 0 0 0-1.29-.518l-1.645-.051c-.971-.03-1.821.649-2.172 1.628-.132.389-.18.801-.143 1.21a18.877 18.877 0 0 1-.176 4.537l5.18.16z"/>
        <path fill="#9F616A" fill-rule="nonzero" d="M38.525 10.324s1.014 2.577-1.859 2.915c-2.873.338 2.493 3.253 2.493 3.253l3.676-1.943s-2.958-2.113-2.028-4.014l-2.282-.211z"/>
        <path fill="#000" fill-rule="nonzero" d="M38.525 10.324s1.014 2.577-1.859 2.915c-2.873.338 2.493 3.253 2.493 3.253l3.676-1.943s-2.958-2.113-2.028-4.014l-2.282-.211z" opacity=".1"/>
        <path fill="#9F616A" fill-rule="nonzero" d="M31.934 46.405l-.845 2.493h2.155l.38-1.944zM40.046 46.405v1.859h1.31l.169-2.282z"/>
        <path fill="#2F2E41" fill-rule="nonzero" d="M32.06 48.01s-1.098-.76-1.182-.38c-.085.38-.887 2.577-2.155 2.746-1.267.17-2.577.888-1.098 1.141 1.478.254 3.718-.084 4.056-.338.338-.253.38.085.38.085s1.732-.127 1.732-.212c0-.084-.084-.676 0-.845.085-.169-.169-1.056-.169-1.056l.17-1.52s-.761.126-.761.21c0 .085-.972.17-.972.17zM40.51 47.503s-.76-.253-.76 0c0 .254-.676 3.822-.38 3.991.296.17 2.07.361 2.324-.188.253-.55-.17-1.732-.17-1.732s-.253-1.014 0-1.141c.254-.127.381-1.099-1.013-.93z"/>
        <path fill="#2F2E41" fill-rule="nonzero" d="M35.314 25.322l-2.07 13.394s-2.873 7.9-1.521 8.238c1.352.338 1.352.93 2.155.465.802-.465 2.154-8.154 2.154-8.154l3.042-8.746.888 8.957s-.888 7.478-.17 7.478c.719 0 2.451.254 2.62-.127.169-.38.803-8.83.803-8.83s1.678-11.523-.28-12.416c-1.96-.892-7.62-.259-7.62-.259z"/>
        <circle cx="39.877" cy="9.394" r="2.324" fill="#9F616A" fill-rule="nonzero"/>
        <path fill="#EBCB8B" fill-rule="nonzero" d="M37.113 13.913c.115.057.224.126.325.206.365.299 1.257.896 2.439.768 1.563-.17 2.529-.682 2.529-.682s1.738.47 1.95 1.147c.21.676-1.521 4.182-1.521 4.182s-.634 1.352-.17 2.24c.465.887.93 3.21 1.183 3.675.254.465.507 2.028-.21 1.437-.719-.592-2.198-2.028-4.521-1.437-2.324.592-4.86.845-4.69.634.169-.211.634-6.042.634-6.042l-.93-5.619s.969-1.687 2.914-1.245c0 0-.27.559.068.736z"/>
        <path fill="#9F616A" fill-rule="nonzero" d="M33.709 25.28l1.394 1.986s1.14-.085 1.098-.592c0 0 .592.465.76.212.17-.254-.717-1.268-1.013-1.395-.296-.126-.887-.253-1.014-.38s-.55-.591-.55-.591l-.675.76zM42.37 24.35s-1.219.466-1.645.994c-.425.528-1.017.992-.721.992.296 0 .972-.295.972-.295s.718 1.394 1.69.549l.675-1.014s-.168-1.394-.971-1.225z"/>
        <path fill="#EBCB8B" fill-rule="nonzero" d="M34.723 14.338h-.592s-2.112 4.774-1.563 7.182c.55 2.408 1.014 3.971 1.225 4.056.211.084.423-.88.93-.736 0 0-.423-2.77-.212-2.94.212-.169.17-.507.212-.93.042-.422.591-1.69.591-1.69l-.591-4.942zM43.384 15.225l.971.127s.507 1.478.55 2.577c.042 1.098.126 1.52.253 1.901.127.38-.38 1.775-.296 2.324.085.549-1.732 3.971-1.732 3.802 0-.169-.549-1.648-.93-1.479 0 0 .297-.845.635-1.056.337-.211 0-1.859 0-1.859l-.296-2.704.845-3.633z"/>
        <path fill="#2F2E41" fill-rule="nonzero" d="M37.881 6.922h4.288v1.956h-4.288z"/>
        <circle cx="37.58" cy="9.781" r="1" fill="#9F616A" fill-rule="nonzero" transform="rotate(-14.173 37.58 9.78)"/>
        <circle cx="44.953" cy="2.332" r="1.279" stroke="#3F3D56" stroke-width="2"/>
    </g>
</svg>
