<svg xmlns="http://www.w3.org/2000/svg" width="32" height="38" viewBox="0 0 32 38">
    <g fill="none" fill-rule="evenodd">
        <path fill="#FFF" fill-rule="nonzero" d="M30.74 11.174V33.87A3.13 3.13 0 0 1 27.608 37H4.13S1 37 1 33.87V4.13A3.13 3.13 0 0 1 4.13 1h16.435v7.043a3.13 3.13 0 0 0 3.13 3.13h7.044z"/>
        <path fill="#D0D7DF" fill-rule="nonzero" d="M30.74 11.174h-7.044a3.13 3.13 0 0 1-3.13-3.13V1l10.173 10.174z"/>
        <path stroke="#474C54" stroke-linecap="round" stroke-linejoin="round" stroke-width="2" d="M20.565 5.696v2.347a3.13 3.13 0 0 0 3.13 3.13h7.044"/>
        <path stroke="#474C54" stroke-linecap="round" stroke-linejoin="round" stroke-width="2" d="M1 13.522V4.13A3.13 3.13 0 0 1 4.13 1h16.435L30.74 11.174V33.87A3.13 3.13 0 0 1 27.61 37H4.13S1 37 1 33.87V13.522z"/>
        <g transform="translate(6.478 13.522)">
            <path fill="#FED049" fill-rule="nonzero" d="M12.522 3.13v3.13a6.26 6.26 0 0 0-6.261 6.262H1.565A1.57 1.57 0 0 1 0 10.957V1.565A1.57 1.57 0 0 1 1.565 0h9.392a1.57 1.57 0 0 1 1.565 1.565V3.13z"/>
            <circle cx="12.522" cy="12.522" r="6.261" fill="#35DC86" fill-rule="nonzero"/>
            <path stroke="#474C54" stroke-linecap="round" stroke-linejoin="round" stroke-width="2" d="M12.522 3.13V1.565A1.57 1.57 0 0 0 10.957 0H1.565A1.57 1.57 0 0 0 0 1.565v9.392a1.57 1.57 0 0 0 1.565 1.565H3.13"/>
            <circle cx="12.522" cy="12.522" r="6.261" stroke="#474C54" stroke-linecap="round" stroke-linejoin="round" stroke-width="2"/>
        </g>
    </g>
</svg>
