<svg xmlns="http://www.w3.org/2000/svg" width="32" height="38" viewBox="0 0 32 38">
    <g fill="none" fill-rule="evenodd">
        <path fill="#768BA0" fill-rule="nonzero" d="M30.74 11.174V33.87A3.13 3.13 0 0 1 27.608 37H4.13S1 37 1 33.87V4.13A3.13 3.13 0 0 1 4.13 1h16.435v7.043a3.13 3.13 0 0 0 3.13 3.13h7.044z"/>
        <path fill="#4C6681" fill-rule="nonzero" d="M30.74 11.174h-7.044a3.13 3.13 0 0 1-3.13-3.13V1l10.173 10.174z"/>
        <path fill="#F1F2F2" fill-rule="nonzero" d="M22.13 15.87v.023l-5.454 5.455H9.632l5.455-5.455v-.023z"/>
        <path fill="#A4B0C0" fill-rule="nonzero" d="M26.043 18.217v3.13h-9.47l5.557-5.454v-.023h1.566a2.348 2.348 0 0 1 2.347 2.347zM15.087 15.87v.023l-5.414 5.455H5.696v-3.13a2.348 2.348 0 0 1 2.347-2.348h7.044z"/>
        <path fill="#D0D7DF" fill-rule="nonzero" d="M26.043 21.348v8.609a2.348 2.348 0 0 1-2.347 2.347H8.043a2.348 2.348 0 0 1-2.347-2.347v-8.61h20.347z"/>
        <path stroke="#474C54" stroke-linecap="round" stroke-linejoin="round" stroke-width="2" d="M15.157 15.893l-5.454 5.455h16.34v8.609a2.348 2.348 0 0 1-2.347 2.347H8.043a2.348 2.348 0 0 1-2.347-2.347v-11.74a2.348 2.348 0 0 1 2.347-2.347h15.653a2.348 2.348 0 0 1 2.347 2.347M16.746 21.348l5.455-5.455M20.565 5.696v2.347a3.13 3.13 0 0 0 3.13 3.13h7.044"/>
        <path stroke="#474C54" stroke-linecap="round" stroke-linejoin="round" stroke-width="2" d="M1 13.522V4.13A3.13 3.13 0 0 1 4.13 1h16.435L30.74 11.174V33.87A3.13 3.13 0 0 1 27.61 37H4.13S1 37 1 33.87V13.522zM9.609 25.26H22.13M17.435 25.26v3.131"/>
    </g>
</svg>
