<svg xmlns="http://www.w3.org/2000/svg" width="14" height="11" viewBox="0 0 14 11">
    <g fill="none" fill-rule="nonzero">
        <path fill="#EBCB8B" d="M4 8.75v1.5a.75.75 0 0 1-.75.75H.75a.75.75 0 0 1-.75-.75v-1.5A.75.75 0 0 1 .75 8h2.5a.75.75 0 0 1 .75.75zM4 4.75v1.5a.75.75 0 0 1-.75.75H.75A.75.75 0 0 1 0 6.25v-1.5A.75.75 0 0 1 .75 4h2.5a.75.75 0 0 1 .75.75zM9 8.75v1.5a.75.75 0 0 1-.75.75h-2.5a.75.75 0 0 1-.75-.75v-1.5A.75.75 0 0 1 5.75 8h2.5a.75.75 0 0 1 .75.75z"/>
        <path fill="#D08770" d="M4 .75v1.5a.75.75 0 0 1-.75.75H.75A.75.75 0 0 1 0 2.25V.75A.75.75 0 0 1 .75 0h2.5A.75.75 0 0 1 4 .75zM9 4.75v1.5a.75.75 0 0 1-.75.75h-2.5A.75.75 0 0 1 5 6.25v-1.5A.75.75 0 0 1 5.75 4h2.5a.75.75 0 0 1 .75.75zM14 8.75v1.5a.75.75 0 0 1-.75.75h-2.5a.75.75 0 0 1-.75-.75v-1.5a.75.75 0 0 1 .75-.75h2.5a.75.75 0 0 1 .75.75z"/>
        <path fill="#BF616A" d="M9 .75v1.5a.75.75 0 0 1-.75.75h-2.5A.75.75 0 0 1 5 2.25V.75A.75.75 0 0 1 5.75 0h2.5A.75.75 0 0 1 9 .75zM14 4.75v1.5a.75.75 0 0 1-.75.75h-2.5a.75.75 0 0 1-.75-.75v-1.5a.75.75 0 0 1 .75-.75h2.5a.75.75 0 0 1 .75.75zM14 .75v1.5a.75.75 0 0 1-.75.75h-2.5a.75.75 0 0 1-.75-.75V.75a.75.75 0 0 1 .75-.75h2.5a.75.75 0 0 1 .75.75z"/>
    </g>
</svg>
