<svg xmlns="http://www.w3.org/2000/svg" width="12" height="13" viewBox="0 0 12 13">
    <g fill="none" fill-rule="evenodd">
        <path fill="#FFF" fill-rule="nonzero" d="M8.63 5.954l-.86-.198.67.992v3.076l2.295-1.984V4.466l-1.052.397zM3.274 5.954l.86-.198-.669.992v3.076L1.17 7.84V4.466l1.052.397z"/>
        <path fill="#FFF" d="M3.752 6.947l.765-1.191.479.297h1.913l.478-.297.765 1.19v4.466l-.574.893-.67.695H4.997l-.67-.695-.574-.893z"/>
        <g fill="#BF616A">
            <path d="M6.813 9.725l1.34-.992v.397l-1.34.992zM6.813 10.52l1.34-.993v.397l-1.34.992zM6.813 11.313l1.34-.993v.397l-1.34.993z"/>
        </g>
        <g fill="#BF616A">
            <path d="M5.091 9.725l-1.339-.992v.397l1.34.992zM5.091 10.52l-1.339-.993v.397l1.34.992zM5.091 11.313l-1.339-.993v.397l1.34.993z"/>
        </g>
        <path fill="#FFF" fill-rule="nonzero" d="M8.44 11.71l1.243-1.29V9.13L8.439 10.22zM3.465 11.71l-1.243-1.29V9.13l1.243 1.091z"/>
        <path fill="#FFF" d="M6.526 0v2.48l.383-.198V0h.287l.765 1.885-1.148 3.771h-.67V0h.383zm-1.53 2.282l.382.199V0h.383v5.656h-.574l-1.244-3.77L4.71 0h.287v2.282z"/>
        <path fill="#FFF" fill-rule="nonzero" d="M5.187 5.656L1.074 4.07.5 1.588l3.54.297 1.243 3.771zM6.813 5.656l4.113-1.587.574-2.481-3.635.297-1.148 3.771zM8.152 1.588l2.009-.199L8.82 0H7.484zM3.752 1.588l-2.009-.199L3.083 0h1.339z"/>
    </g>
</svg>
