<svg xmlns="http://www.w3.org/2000/svg" width="14" height="12" viewBox="0 0 14 12">
    <g fill="none" fill-rule="nonzero" transform="translate(.5 .5)">
        <path fill="#D8DEE9" d="M12.188 2.436h-1.626L9.986.786a.822.822 0 0 0-.732-.354h-5.5a.822.822 0 0 0-.723.346l-.594 1.658H.813A.742.742 0 0 0 0 3.064V9.98c.05.387.41.665.813.628h11.374A.742.742 0 0 0 13 9.98V3.064a.742.742 0 0 0-.813-.628z"/>
        <path fill="#4C566A" d="M6.5 8.643c-1.346 0-2.438-1.055-2.438-2.357 0-1.302 1.092-2.357 2.438-2.357s2.438 1.055 2.438 2.357c0 1.302-1.092 2.357-2.438 2.357z"/>
        <ellipse cx="6.5" cy="6.286" fill="#2E3440" rx="1.625" ry="1.571"/>
    </g>
</svg>
