<svg xmlns="http://www.w3.org/2000/svg" width="13" height="15" viewBox="0 0 13 15">
    <path fill="#FFF" fill-rule="nonzero" d="M10.919 7.465c-.023-1.11.617-2.135 1.652-2.647-.647-.856-1.676-1.378-2.785-1.412-1.18-.088-2.461.653-2.935.653-.473 0-1.643-.618-2.535-.618C2.46 3.441.5 4.844.5 7.641c.009.872.169 1.737.474 2.559.408 1.13 1.94 3.962 3.537 3.918.836 0 1.43-.565 2.517-.565 1.086 0 1.597.565 2.535.565 1.606 0 3-2.603 3.398-3.76-1.236-.48-2.044-1.624-2.042-2.893zM9.06 2.285A2.878 2.878 0 0 0 9.832 0a3.583 3.583 0 0 0-2.247 1.103 2.923 2.923 0 0 0-.864 2.259 2.84 2.84 0 0 0 2.322-1.077h.018z"/>
</svg>
