<svg xmlns="http://www.w3.org/2000/svg" width="16" height="12" viewBox="0 0 16 12">
    <g fill="#2E3440" fill-rule="nonzero">
        <rect width="4" height="4" x="6" y="8" rx="1"/>
        <rect width="4" height="4" y="8" rx="1"/>
        <rect width="4" height="4" x="12" y="8" rx="1"/>
        <path d="M2.5 6.5A.5.5 0 0 1 3 6h4.5v1h1V6H13a.5.5 0 0 1 .5.5V7h1v-.5A1.5 1.5 0 0 0 13 5H8.5V4h.75a1 1 0 0 0 1-1V1a1 1 0 0 0-1-1h-2.5a1 1 0 0 0-1 1v2a1 1 0 0 0 1 1h.75v1H3a1.5 1.5 0 0 0-1.5 1.5V7h1v-.5z"/>
    </g>
</svg>
