<svg xmlns="http://www.w3.org/2000/svg" width="211" height="213" viewBox="0 0 211 213">
    <path fill="#88C0D0" fill-rule="nonzero" d="M205.972 90.46c-9.201-20.239-27.888-34.708-49.838-35.34-7.895-.232-15.484 1.18-22.409 3.966a57.685 57.685 0 0 0-3.681-22.724C122.152 15.554 102.512 2.41 80.66.282 70.987-.672 62.743.862 55.6 3.888c-3.394 1.409-3.304 6.513.189 7.718 15.926 5.491 30.042 17.678 38.589 38.224.209.574.458 1.102.671 1.688-3.579-5.188-8.01-9.872-13.346-13.771-16.507-12.054-38.52-12.964-57.083-4.61C13.573 38.091 6.287 45.053 1.28 52.888c-1.601 2.49.618 5.661 3.469 4.863 16.99-4.555 36.099-2.103 54.773 11.327 8.67 6.252 15.152 13.36 19.788 20.924a35.864 35.864 0 0 0-22.13-10.72C43.79 78.056 30.956 85.36 23.601 96.757c-2.965 4.551-4.546 9.073-5.205 13.396-.459 2.968 3.03 5.03 5.29 3.051 7.65-6.754 18.126-10.682 31.239-9.556 10.79.935 19.243 4.95 25.476 10.74C79.554 115.217-5.671 192.383-9 360h34.6c-7.42-182.357 75.675-230.46 75.7-230.76 6.908 4.128 12.916 10.67 17.072 20.068 5.427 12.22 5.242 23.634 1.434 33.194-1.09 2.785 1.945 5.458 4.541 4.045 3.85-2.062 7.52-5.121 10.803-9.502 8.142-10.853 10.734-25.55 5.12-37.891-3.686-8.072-9.89-14.154-17.299-17.678 8.613 1.92 17.376 5.773 25.992 12.025 18.4 13.23 27.074 30.372 28.589 47.83.311 3.279 4.353 4.546 6.298 1.907 5.357-7.295 9.178-16.377 10.099-28.219 1.61-20.575-6.466-41.374-23.134-53.15a56.725 56.725 0 0 0-17.232-8.217c.581.004 1.159.012 1.785.074 21.635 1.372 37.545 10.62 47.963 23.822 2.392 3.084 7.466 1.434 7.617-2.498.344-7.702-.99-15.858-4.976-24.59z"/>
</svg>
