<svg xmlns="http://www.w3.org/2000/svg" xmlns:xlink="http://www.w3.org/1999/xlink" width="200" height="120" viewBox="0 0 200 120">
    <defs>
        <path id="a" d="M4 0h192a4 4 0 0 1 4 4v116H0V4a4 4 0 0 1 4-4z"/>
        <linearGradient id="c" x1="50%" x2="50%" y1="99.998%" y2="0%">
            <stop offset="0%" stop-color="gray" stop-opacity=".25"/>
            <stop offset="54%" stop-color="gray" stop-opacity=".12"/>
            <stop offset="100%" stop-color="gray" stop-opacity=".1"/>
        </linearGradient>
        <linearGradient id="d" x1="50%" x2="50%" y1="100%" y2="0%">
            <stop offset="0%" stop-color="gray" stop-opacity=".25"/>
            <stop offset="54%" stop-color="gray" stop-opacity=".12"/>
            <stop offset="100%" stop-color="gray" stop-opacity=".1"/>
        </linearGradient>
        <linearGradient id="e" x1="-.001%" x2="100.006%" y1="50.015%" y2="50.015%">
            <stop offset="0%" stop-color="gray" stop-opacity=".25"/>
            <stop offset="54%" stop-color="gray" stop-opacity=".12"/>
            <stop offset="100%" stop-color="gray" stop-opacity=".1"/>
        </linearGradient>
        <linearGradient id="f" x1="0%" x2="100.041%" y1="50.003%" y2="50.003%">
            <stop offset="0%" stop-color="gray" stop-opacity=".25"/>
            <stop offset="54%" stop-color="gray" stop-opacity=".12"/>
            <stop offset="100%" stop-color="gray" stop-opacity=".1"/>
        </linearGradient>
    </defs>
    <g fill="none" fill-rule="evenodd">
        <mask id="b" fill="#fff">
            <use xlink:href="#a"/>
        </mask>
        <use fill="#FFF" xlink:href="#a"/>
        <g mask="url(#b)">
            <g transform="translate(0 17)">
                <path fill="url(#c)" fill-rule="nonzero" d="M107.698 0H3.504A3.368 3.368 0 0 0 .148 3.379V75.09a3.368 3.368 0 0 0 3.356 3.378H39.34v12.379h-1.634a1.708 1.708 0 0 0-1.702 1.714v2.483h3.336v1.47h32.522v-1.47h3.336v-2.483a1.708 1.708 0 0 0-1.702-1.714h-1.537v-.107h-.105V78.469h35.844a3.368 3.368 0 0 0 3.356-3.378V3.379A3.368 3.368 0 0 0 107.698 0z" opacity=".7" transform="translate(44.239)"/>
                <path fill="#BDBDBD" fill-rule="nonzero" d="M83.893 76.337h32.099v18.93H83.893z"/>
                <path fill="#000" fill-rule="nonzero" d="M84.525 78.19h30.899c.372-1.62.67-2.676.67-2.676H83.79s.331 1.052.735 2.675z" opacity=".1"/>
                <path fill="#535461" fill-rule="nonzero" d="M48.523.617h102.84a3.313 3.313 0 0 1 3.312 3.313v63.354H45.21V3.93A3.313 3.313 0 0 1 48.523.617z"/>
                <path fill="#BDBDBD" fill-rule="nonzero" d="M151.362 77.572H48.522a3.313 3.313 0 0 1-3.312-3.313v-6.975h109.465v6.975a3.313 3.313 0 0 1-3.313 3.313z"/>
                <circle cx="99.942" cy="72.428" r="1.852" fill="#535461" fill-rule="nonzero"/>
                <path fill="#BDBDBD" fill-rule="nonzero" d="M82.282 89.712h35.32c.93 0 1.682.753 1.682 1.681v2.434H80.601v-2.434a1.681 1.681 0 0 1 1.68-1.681z"/>
                <rect width="67.901" height="38.634" x=".148" y=".025" fill="url(#d)" fill-rule="nonzero" opacity=".5" rx="4.5" transform="translate(65.844 14.61)"/>
                <rect width="66.16" height="37.852" x="66.862" y="14.918" fill="#FFF" fill-rule="nonzero" rx="4.5"/>
                <rect width="7.292" height="6.564" x=".107" y=".187" fill="#2E3440" fill-rule="nonzero" opacity=".5" rx="3.282" transform="translate(85.185 20.165)"/>
                <rect width="19.689" height="1" x="94.772" y="20.352" fill="#E0E0E0" fill-rule="nonzero" rx=".5"/>
                <rect width="16.366" height="1" x="94.772" y="22.541" fill="#E0E0E0" fill-rule="nonzero" rx=".5"/>
                <rect width="7.292" height="6.564" x=".107" y=".109" fill="#2E3440" fill-rule="nonzero" opacity=".5" rx="3.282" transform="translate(85.185 30.453)"/>
                <rect width="19.689" height="1" x="94.772" y="30.562" fill="#E0E0E0" fill-rule="nonzero" rx=".5"/>
                <rect width="19.689" height="1" x="94.772" y="32.749" fill="#E0E0E0" fill-rule="nonzero" rx=".5"/>
                <rect width="7.292" height="6.564" x=".107" y=".031" fill="#2E3440" fill-rule="nonzero" opacity=".5" rx="3.282" transform="translate(85.185 40.74)"/>
                <rect width="19.689" height="1" x="94.772" y="40.772" fill="#E0E0E0" fill-rule="nonzero" rx=".5"/>
                <rect width="19.821" height="1" x="94.772" y="42.959" fill="#E0E0E0" fill-rule="nonzero" rx=".5"/>
                <path fill="#000" fill-rule="nonzero" stroke="#2E3440" stroke-width="2" d="M99.942 8.642V4.115M99.942 16.255v-5.94"/>
                <circle cx="99.942" cy="16.255" r="1" fill="#2E3440" fill-rule="nonzero"/>
                <circle cx="99.942" cy="9.465" r="1" stroke="#FFF"/>
                <path fill="#000" fill-rule="nonzero" stroke="#2E3440" stroke-width="2" d="M99.942 8.642V4.115M99.942 16.255v-5.94"/>
                <circle cx="99.942" cy="16.255" r="1" fill="#2E3440" fill-rule="nonzero"/>
                <circle cx="99.942" cy="9.465" r="1" stroke="#FFF"/>
                <path fill="#000" fill-rule="nonzero" stroke="#2E3440" stroke-width="2" d="M99.942 57.407v6.379M99.942 51.646v5.94"/>
                <circle cx="99.942" cy="51.646" r="1" fill="#2E3440" fill-rule="nonzero"/>
                <path fill="#000" fill-rule="nonzero" stroke="#2E3440" stroke-width="2" d="M62.905 34.67h-6.481M68.564 34.67h-5.94"/>
                <circle cx="68.564" cy="34.671" r="1" fill="#2E3440" fill-rule="nonzero"/>
                <path fill="#000" fill-rule="nonzero" d="M83.996 89.631h32.099v1h-32.1z" opacity=".1"/>
                <path fill="url(#e)" fill-rule="nonzero" d="M33.374 39.519H18.477l.206-1.675c4.21-3.78 6.932-13.85 6.932-13.85-.06.008-.12.02-.179.037-2.469.498-4.226 1.512-5.455 2.732l.523-4.456c7.778-1.675 10.862-11.963 10.862-11.963-4.963 1.1-8.057 2.804-9.98 4.421l.766-6.547c5.26 1.805 10.7-7.782 10.7-7.782l-.206-.043.103-.066-.156.056c-5.813-1.253-8.92 2.07-9.928 3.45l.076-.642c-.154.412-.303.815-.449 1.21v.017a70.922 70.922 0 0 0-1.13 3.304 88.705 88.705 0 0 0-.835 2.757v-.012s-.24-5.856-6.415-7.397c0 0 .648 12.772 5.54 10.681a96.897 96.897 0 0 0-1.143 5.364 87.84 87.84 0 0 0-.535 3.292l-.03.033.03-.024-.013.084c-.137.97-.253 1.915-.35 2.835.095-1.773-.228-6.897-6.265-11.712 0 0-8.025 14.103 5.659 16.873l.09.078-.02-.064.123.027.055-.724a76.006 76.006 0 0 0 .048 9.074l.043.607H2.076C-3.673 51.384 5.27 57.9 5.27 57.9h24.69c9.59-12.086 3.414-18.382 3.414-18.382z" opacity=".7" transform="translate(3.498 36.008)"/>
                <path stroke="#535461" stroke-width="3" d="M21.136 80.041s-3.91-17.078 4.732-39.094" opacity=".6"/>
                <path fill="#2E3440" fill-rule="nonzero" d="M5.91 74.897h30.246s5.967 7.613-3.292 18.93H8.996s-8.642-7.819-3.087-18.93z"/>
                <path fill="#4DB6AC" fill-rule="nonzero" d="M25.434 42.078s3.006-5.35 10.208-3.704c0 0-5.953 10.136-11.317 6.817l1.11-3.113zM23.529 47.755s-.233-5.471-6.2-6.911c0 0 .618 11.934 5.35 9.979l.85-3.068zM21.578 55.835s1.101-5.732 12.624-8.201c0 0-3.675 11.856-13.155 11.38l.531-3.179z"/>
                <path fill="#4DB6AC" fill-rule="nonzero" d="M20.644 62.27s1.212-5.994-5.99-11.55c0 0-7.819 13.307 5.655 15.809l.335-4.26z"/>
                <path fill="#4DB6AC" fill-rule="nonzero" d="M20.428 70.508s-.835-8.471 8.218-10.117c0 0-3.306 11.83-8.23 13.938l.012-3.82z"/>
                <path stroke="#535461" d="M24.428 45.267s7.819-5.967 11.111-6.995M21.033 58.95s9.465-10.082 13.169-11.316M17.33 40.844s5.76 7.819 5.349 9.876M14.654 50.72s3.087 13.992 5.556 15.844M20.416 74.383s4.938-13.58 8.23-13.992" opacity=".3"/>
                <path fill="#000" fill-rule="nonzero" d="M36.156 74.897H5.91c-.067.138-.133.276-.205.412h29.424s5.82 7.43-2.963 18.518h.7c9.258-11.317 3.291-18.93 3.291-18.93z" opacity=".1"/>
                <path fill="#E0E0E0" fill-rule="nonzero" d="M0 93.745h199.885v6.776H0zM8.469 100.521h182.944v2.772H8.469z"/>
                <path fill="#000" fill-rule="nonzero" d="M8.469 100.521h182.944v1H8.469z" opacity=".1"/>
                <path fill="#000" fill-rule="nonzero" stroke="#2E3440" stroke-width="2" d="M142.02 34.67h1.235M131.115 34.67h9.235"/>
                <circle cx="131.115" cy="34.671" r="1" fill="#2E3440" fill-rule="nonzero"/>
                <circle cx="141.198" cy="34.671" r="1" stroke="#FFF"/>
                <path fill="url(#f)" fill-rule="nonzero" d="M19.49 33.514l.02-.03c.043-.066.085-.135.126-.206l.022-.04c.04-.067.078-.135.114-.205l.018-.035a4.895 4.895 0 0 0 .309-.761l.02-.068.054-.192.02-.09a3.59 3.59 0 0 0 .037-.175c0-.033.013-.066.019-.099l.027-.175c.008-.06 0-.068.012-.1.012-.033.012-.126.017-.19v-.088-17.274h-2.85v-8.33h-3.498v8.33h-2.412V1.823H8.047v11.963H6.733V.113H3.235v13.673H.148v16.996c0 2.774 2.307 5.02 5.144 5.02h9.877a5.183 5.183 0 0 0 4.164-2.07c.051-.072.103-.145.157-.218z" opacity=".7" transform="translate(168.313 58.025)"/>
                <path fill="#535461" fill-rule="nonzero" d="M171.959 66.049h3.292v20.576h-3.292z"/>
                <path fill="#3AD29F" fill-rule="nonzero" d="M171.959 59.259h3.292v6.79h-3.292z"/>
                <path fill="#535461" fill-rule="nonzero" d="M176.486 67.695h3.292v20.576h-3.292z"/>
                <path fill="#4D8AF0" fill-rule="nonzero" d="M176.486 60.905h3.292v6.79h-3.292z"/>
                <path fill="#535461" fill-rule="nonzero" d="M182.041 71.193h3.292v20.576h-3.292z"/>
                <path fill="#F55F44" fill-rule="nonzero" d="M182.041 64.403h3.292v6.79h-3.292z"/>
                <path fill="#2E3440" fill-rule="nonzero" d="M169.078 72.428h18.93v16.358a4.835 4.835 0 0 1-4.835 4.835h-9.26a4.835 4.835 0 0 1-4.835-4.835V72.428z"/>
                <path fill="#000" fill-rule="nonzero" d="M169.078 72.428v.823h18.107v16.358a4.813 4.813 0 0 1-1.029 2.982 4.825 4.825 0 0 0 1.852-3.805V72.428h-18.93z" opacity=".1"/>
            </g>
        </g>
    </g>
</svg>
