<svg xmlns="http://www.w3.org/2000/svg" width="200" height="120" viewBox="0 0 200 120">
    <defs>
        <linearGradient id="a" x1="50%" x2="50%" y1="100.005%" y2="-.003%">
            <stop offset="0%" stop-color="gray" stop-opacity=".25"/>
            <stop offset="54%" stop-color="gray" stop-opacity=".12"/>
            <stop offset="100%" stop-color="gray" stop-opacity=".1"/>
        </linearGradient>
        <linearGradient id="b" x1="49.998%" x2="49.998%" y1="100.012%" y2="0%">
            <stop offset="0%" stop-color="gray" stop-opacity=".25"/>
            <stop offset="54%" stop-color="gray" stop-opacity=".12"/>
            <stop offset="100%" stop-color="gray" stop-opacity=".1"/>
        </linearGradient>
        <linearGradient id="c" x1="49.996%" x2="49.996%" y1="100%" y2="0%">
            <stop offset="0%" stop-color="gray" stop-opacity=".25"/>
            <stop offset="54%" stop-color="gray" stop-opacity=".12"/>
            <stop offset="100%" stop-color="gray" stop-opacity=".1"/>
        </linearGradient>
        <linearGradient id="d" x1="50.002%" x2="50.002%" y1="100.027%" y2="-.002%">
            <stop offset="0%" stop-color="gray" stop-opacity=".25"/>
            <stop offset="54%" stop-color="gray" stop-opacity=".12"/>
            <stop offset="100%" stop-color="gray" stop-opacity=".1"/>
        </linearGradient>
    </defs>
    <g fill="none" fill-rule="evenodd">
        <path fill="#FFF" d="M4 0h192a4 4 0 0 1 4 4v116H0V4a4 4 0 0 1 4-4z"/>
        <g transform="translate(0 1)">
            <path fill="#2E3440" fill-rule="nonzero" d="M29.392.014c-1.554-.045-3.147 0-4.605.447-3.967 1.219-5.848 5.207-5.236 8.654.611 3.446 3.126 6.45 5.735 9.194 2.61 2.744 5.437 5.458 6.868 8.738.714 1.638 1.048 3.472.322 5.107-1.118 2.521-4.491 3.929-7.73 4.222-3.238.293-6.49-.278-9.74-.469-1.363-.079-2.765-.088-4.05.28-1.41.401-2.584 1.22-3.664 2.075-4.214 3.352-7.587 7.925-7.041 12.73.617 5.444 6.121 9.747 12.15 12.055 1.996.772 4.108 1.385 5.865 2.477 4.629 2.88 5.668 8.28 5.207 13.045-.46 4.766-2.03 9.537-1.157 14.26 1.028 5.495 5.578 10.46 11.715 12.778 5.468 2.065 12.31 1.928 17.165-.986 2.366-1.423 4.156-3.4 5.712-5.445a43.923 43.923 0 0 0 5.68-9.836c.677-1.637 1.314-3.398 2.893-4.536.965-.7 2.214-1.091 3.45-1.396 3.727-.918 7.651-1.169 11.412-1.987 3.761-.817 7.545-2.347 9.59-5.066 2.892-3.857 1.542-8.799 1.556-13.335.023-10.349 7.543-19.612 10.318-29.7.907-3.297 1.244-6.944-.781-9.885-1.375-1.996-3.695-3.437-6.133-4.55-5.364-2.447-11.46-3.537-17.456-4.598-8.334-1.473-18.453-1.664-24.912-6.432C46.325 3.28 37.845.014 29.392.014z" opacity=".2"/>
            <ellipse cx="110.318" cy="94.017" fill="#F5F5F5" fill-rule="nonzero" rx="89.682" ry="24.015"/>
            <path fill="#2E3440" fill-rule="nonzero" d="M184.798 36.039s-6.91 6.91-3.008 17.164c3.901 10.255-6.689 27.308-6.689 27.308s.114-.017.324-.054c14.193-2.507 21.246-18.739 13.354-30.798-2.933-4.483-5.342-9.736-3.98-13.62z"/>
            <path stroke="#535461" stroke-width="2" d="M184.798 36.039s-3.901 8.47 0 15.38c3.902 6.91.67 26.305-9.697 29.092"/>
            <path fill="#2E3440" fill-rule="nonzero" d="M197.107 63.99s-7.886-1.255-8.604 5.811c-.717 7.067-15.163 8.047-15.163 8.047l.27.179c11.927 7.828 23.337 4.987 21.601-5.4-.63-3.873-.578-7.755 1.896-8.637z"/>
            <path fill="#F5F5F5" fill-rule="nonzero" d="M197.107 63.99s-7.886-1.255-8.604 5.811c-.717 7.067-15.163 8.047-15.163 8.047l.27.179c11.927 7.828 23.337 4.987 21.601-5.4-.63-3.873-.578-7.755 1.896-8.637z" opacity=".2"/>
            <path stroke="#535461" stroke-width="2" d="M197.107 63.99s-6.121 1.35-5.618 6.909c.503 5.558-9.09 12.237-18.149 6.943"/>
            <path fill="url(#a)" fill-rule="nonzero" d="M178.856 80.987h-12.39a4.131 4.131 0 0 0 .433-1.845V22.717a4.149 4.149 0 0 0-4.149-4.148H66.831a4.15 4.15 0 0 0-4.15 4.148v56.427c-.001.64.147 1.272.432 1.845H50.285c-.606 0-1.097.492-1.097 1.098v.885a6.137 6.137 0 0 0 6.137 6.131h118.492a6.137 6.137 0 0 0 6.137-6.137v-.885a1.097 1.097 0 0 0-1.098-1.094zm-76.353 3.51l-1.057-1.205h26.369l-1.177 1.208-24.135-.002z"/>
            <rect width="101.855" height="63.257" x="63.859" y="19.367" fill="#535461" fill-rule="nonzero" rx="23.26"/>
            <path fill="#FFF" fill-rule="nonzero" d="M66.002 28.588h97.352v51.678H66.002z"/>
            <circle cx="114.679" cy="24.085" r="1" fill="#FFF" fill-rule="nonzero"/>
            <path fill="#535461" fill-rule="nonzero" d="M129.71 80.372l-3.345 3.431h-23.588l-3.022-3.43H51.743c-.592 0-1.072.48-1.072 1.072v.864a5.998 5.998 0 0 0 5.998 5.998h115.805a5.998 5.998 0 0 0 5.999-5.998v-.864c0-.593-.48-1.073-1.073-1.073h-47.69z"/>
            <path fill="url(#b)" fill-rule="nonzero" d="M96.318 30.405H55.252a3.763 3.763 0 0 0-3.767 3.757v56.895a3.763 3.763 0 0 0 3.767 3.757h41.066a3.763 3.763 0 0 0 3.767-3.757V34.162a3.763 3.763 0 0 0-3.767-3.757z"/>
            <rect width="47.445" height="63.067" x="52.062" y="31.176" fill="#535461" fill-rule="nonzero" rx="20"/>
            <path fill="#FFF" fill-rule="nonzero" d="M54.473 37.142h42.623v51.136H54.473z"/>
            <circle cx="75.591" cy="34.069" r="1" fill="#FFF" fill-rule="nonzero"/>
            <circle cx="75.591" cy="91.157" r="1.736" fill="#FFF" fill-rule="nonzero"/>
            <path fill="url(#c)" fill-rule="nonzero" d="M65.016 49.691H43.931a2.085 2.085 0 0 0-2.09 2.081v46.176a2.085 2.085 0 0 0 2.09 2.08h21.085a2.085 2.085 0 0 0 2.09-2.08V51.772a2.085 2.085 0 0 0-2.09-2.08z"/>
            <rect width="24.879" height="49.759" x="42.033" y="50.077" fill="#535461" fill-rule="nonzero" rx="11"/>
            <path fill="#FFF" fill-rule="nonzero" d="M43.865 54.706H65.08v40.501H43.865z"/>
            <circle cx="51.965" cy="52.392" r="1" fill="#FFF" fill-rule="nonzero"/>
            <rect width="4.243" height="1" x="52.93" y="52.199" fill="#FFF" fill-rule="nonzero" rx=".5"/>
            <circle cx="54.376" cy="97.136" r="1.35" fill="#FFF" fill-rule="nonzero"/>
            <path stroke="#535461" stroke-width="2" d="M39.485 103.423s-2.557-8.679.48-15.07a13.71 13.71 0 0 0 1.115-8.604 23.06 23.06 0 0 0-1.217-4.036"/>
            <path fill="#2E3440" fill-rule="nonzero" d="M41.745 71.674c0 1.065-1.928 4.149-1.928 4.149s-1.929-3.086-1.929-4.149a1.929 1.929 0 1 1 3.857 0zM44.937 77.568c-.578.893-3.872 2.436-3.872 2.436s.06-3.638.638-4.53a1.929 1.929 0 1 1 3.234 2.094zM44.79 87.637c-.95.479-4.572.149-4.572.149s1.888-3.109 2.837-3.587a1.929 1.929 0 0 1 1.736 3.44v-.002zM42.97 95.234c-.856.633-4.482.918-4.482.918s1.335-3.382 2.19-4.015a1.929 1.929 0 0 1 2.292 3.097zM37.013 80.21c.771.74 4.318 1.51 4.318 1.51s-.87-3.531-1.634-4.272a1.929 1.929 0 1 0-2.684 2.764v-.002zM34.995 89.12c.951.479 4.573.149 4.573.149s-1.888-3.109-2.837-3.587a1.929 1.929 0 1 0-1.736 3.44v-.001zM34.224 98.05c.856.633 4.482.918 4.482.918s-1.335-3.383-2.191-4.015a1.929 1.929 0 0 0-2.291 3.097z"/>
            <path fill="url(#d)" fill-rule="nonzero" d="M192.093 75.815c-2.135-2.59-4.722-5.566-4.36-9.013.294-2.79-.408-5.37-.27-8.171.194-3.98-.605-7.094-3.47-9.644-1.675-1.49-4.473-2.661-5.306-2.362-1.651.59-3.453.364-5.152.771-1.29.301-2.148.772-2.68 1.35-1.071.965-1.088 2.315-.6 3.752a6.336 6.336 0 0 0 3.13 8.887c-1.19.497-2.218 1.643-2.62 3.969a27.132 27.132 0 0 1-1.259 4.688 7.62 7.62 0 0 1-.771.31c.058.024.117.04.175.06-.125.049-.248.097-.385.14.228.089.463.157.704.204-1.543 3.898-3.472 6.312-3.472 6.312s-3.597.795-4.995-.595c0 0 .227.266.536.665a425.282 425.282 0 0 0-5.531-2.255c-1.393-.553-1.75 0-1.736.772-.34.042-.668.153-.964.324a9.387 9.387 0 0 0-1.29-.695c-.8-.192-3.397-1.589-5.995 3.177-1.512 2.771-5.389 7.83-8.368 11.572-5.796 2.665-13.34 6.04-16.145 6.889h-1.797c-.236-.386-.4-.629-.4-.629l-.139.093-.06-.093s-3.529 2.444-7.112 2.463a6.75 6.75 0 0 1-1.512-.193c-1.647-.414-2.808-.6-3.638-.578-.981-.018-1.543.216-1.882.655a2.131 2.131 0 0 0-.23.374c-.03.07-.061.143-.088.218a.447.447 0 0 0 .112.376c.048.068.1.132.156.193l.1.108c.451.467 1.273 1.086 2.295 1.777.295.192.608.405.934.615l.619.386.553.345.222.137.247.15.442.268.262.158.496.296.4.237c1.05.619 2.095 1.219 3.038 1.75l.66.394.064.035.424.237.733.407.503.278.235.13.253.138.05.027.44.24c.183.03.37-.02.513-.14.127-.54.438-1.697.771-1.786.334-.088 1.779-2.613 2.186-4.302h3.9a17.19 17.19 0 0 0 2.283-.351c-1.007.717-2.004 1.168-2.78.976-1.639-.407-3.191.592-3.347 1.577 0 .021-.014.04-.02.062a.86.86 0 0 0-.013.06c-.004.019-.012.048-.016.073-.004.025 0 .04 0 .062v.266c0 .02.012.052.02.079.007.027 0 .035.013.05a.964.964 0 0 0 .043.102l.01.025c.02.042.045.083.072.122l.031.04c.02.027.04.054.064.08l.044.044.074.07.054.044.086.063.064.043.104.061.07.037.13.062.066.029c.07.029.143.056.222.08.126.041.274.084.442.126l.168.04.245.056.129.03c.167.035.344.071.532.107l.26.049.213.038.488.085c.304.052.622.104.964.154l.84.128 1.096.156.243.033.386.054.565.075.386.05 1 .127.313.039.63.077c.83.1 1.632.193 2.371.276l.855.096.432.048.192.02.517.056.288.03.355.037.499.052h.054l.32.033a.291.291 0 0 0 .322-.284v-.032a.282.282 0 0 0 .047-.15c.008-.476.068-.95.179-1.413.021-.079.046-.16.073-.24l.031-.093c.035-.099.07-.193.11-.3.029-.071.054-.144.075-.219 0-.023.014-.046.021-.071.008-.025.02-.08.027-.12.402-1.371-.083-3.929-.221-4.933a5.356 5.356 0 0 0-.22-.945c.025.002.05.002.075 0 .207-.077.402-.182.579-.315 2.947-1.05 5.43-2.252 6.216-3.456a5.383 5.383 0 0 1 3.795.397c1.526.758 13.067 4.525 18.44 6.265.964.83 1.72 1.317 2.139 1.28 0 0 6.84 1.107 9.59-1.053.246.17.4.26.4.26s3.996-1.984 4.596-4.566c.193-.837.368-2.072.548-3.437a4.997 4.997 0 0 0 1.45-3.512c.125-4.336 1.805-9.289 3.051-13.694 1.512.12 2.097-.166 3.483-.85l-.061-.08c.098-.057.185-.096.272-.138zm-22.91 6.494l-.772-.257c.259-.345.482-.716.665-1.107l.106 1.364zm-4.3 1.824l4.63 2.777.04.565a4.05 4.05 0 0 0 .038 1.293c-2.04-1.813-4.428-4.014-4.71-4.637l.002.002zm-1.89-4.05a13.474 13.474 0 0 1-1.21-.554c.385.027.751.05 1.071.068.064.157.11.32.14.486zm-12.397 4.526s.798-1.785 2.598 1.192c.28.463.794 1.2 1.475 2.112l-5.238-.7c.617-.956 1.032-1.846 1.165-2.602v-.002z"/>
            <path fill="#F7C4A7" fill-rule="nonzero" d="M162.102 77.435s-3.664-1.543-6.557-2.7c-2.893-1.157-1.157 2.7-1.157 2.7s4.821 1.35 4.821 1.543c0 .193 4.05.386 4.05.386l-1.157-1.93z"/>
            <path fill="#000" fill-rule="nonzero" d="M162.102 77.435s-3.664-1.543-6.557-2.7c-2.893-1.157-1.157 2.7-1.157 2.7s4.821 1.35 4.821 1.543c0 .193 4.05.386 4.05.386l-1.157-1.93z" opacity=".05"/>
            <path fill="#575988" fill-rule="nonzero" d="M177.724 62.199s-6.557-3.472-7.714 3.278c-1.158 6.75-4.822 11.38-4.822 11.38s-3.472.77-4.822-.58c0 0 3.28 3.858 1.736 4.244 0 0 3.472 2.507 5.015 1.736 1.543-.772 2.7-5.98 3.278-7.33.579-1.35 2.7-13.114 7.33-12.728z"/>
            <path fill="#000" fill-rule="nonzero" d="M177.724 62.199s-6.557-3.472-7.714 3.278c-1.158 6.75-4.822 11.38-4.822 11.38s-3.472.77-4.822-.58c0 0 3.28 3.858 1.736 4.244 0 0 3.472 2.507 5.015 1.736 1.543-.772 2.7-5.98 3.278-7.33.579-1.35 2.7-13.114 7.33-12.728z" opacity=".1"/>
            <path fill="#F7C4A7" fill-rule="nonzero" d="M174.06 59.884s4.05 4.629 4.243 8.486c.193 3.858 4.629-4.05 5.014-4.243.386-.193-3.857-6.75-4.243-8.871-.385-2.122-5.014 4.628-5.014 4.628z"/>
            <path fill="#F7C4A7" fill-rule="nonzero" d="M176.856 61.861l-2.555 2.315 1.205 4.87 3.279-3.087-.386-3.085zM123.53 96.143h-4.436l1.735 4.243 4.243-1.157z"/>
            <path fill="#000" fill-rule="nonzero" d="M120.12 95.531s-4.594 3.2-8.52 2.205c-3.924-.995-4.99-.623-5.448.661-.422 1.183 10.963 7.435 12.778 8.423a.208.208 0 0 0 .302-.135c.124-.525.423-1.65.743-1.736.417-.112 2.314-3.665 2.21-5.06-.104-1.397-2.065-4.358-2.065-4.358z" opacity=".1"/>
            <path fill="#F3B5B7" fill-rule="nonzero" d="M119.927 95.531s-4.594 3.2-8.52 2.205c-3.924-.995-4.99-.623-5.448.661-.422 1.183 10.963 7.435 12.778 8.423a.208.208 0 0 0 .303-.135c.123-.525.422-1.65.742-1.736.417-.112 2.314-3.665 2.21-5.06-.104-1.397-2.065-4.358-2.065-4.358z"/>
            <path fill="#575988" fill-rule="nonzero" d="M157.86 87.85l-12.923-1.736s-21.022 10.029-23.53 10.222l.58 4.435h3.857c1.543 0 16.586-3.278 18.708-6.557a5.165 5.165 0 0 1 3.664.386c1.929.964 20.444 6.943 20.444 6.943l-10.8-13.693z"/>
            <path fill="#000" fill-rule="nonzero" d="M157.86 87.85l-12.923-1.736s-21.022 10.029-23.53 10.222l.58 4.435h3.857c1.543 0 16.586-3.278 18.708-6.557a5.165 5.165 0 0 1 3.664.386c1.929.964 20.444 6.943 20.444 6.943l-10.8-13.693z" opacity=".1"/>
            <path fill="#F7C4A7" fill-rule="nonzero" d="M134.908 93.828l-2.121 2.7 2.121 1.158 3.086-2.315z"/>
            <path fill="#575988" fill-rule="nonzero" d="M171.745 90.743s-6.943-5.945-7.423-7.023c-.48-1.078-11.863-8.407-12.634-8.6-.772-.192-3.28-1.542-5.786 3.086-2.508 4.63-11.765 15.815-11.765 15.815s2.893 4.05 3.857 3.857c.965-.192 11.765-9.257 12.536-13.693 0 0 .772-1.736 2.508 1.157 1.735 2.893 12.921 16.78 15.043 16.587 0 0 8.293 1.35 10.029-1.929 1.736-3.279-6.365-9.257-6.365-9.257z"/>
            <path fill="#DDDBE2" fill-rule="nonzero" d="M175.7 62.488s-2.412 1.06-2.605 5.497c-.192 4.435-4.435 11.957-4.435 11.957l.385 8.872s4.63 4.629 5.015 7.522c.386 2.893 3.664 4.821 3.664 4.821s3.857-1.928 4.436-4.436c.579-2.507.964-8.679 1.929-10.993.964-2.314.385-16.78.385-16.78l-2.893-5.014-1.542-1.735-4.05 4.628s-2.219-2.989-.29-4.34z"/>
            <path fill="#000" fill-rule="nonzero" d="M170.01 85.92s-.579-6.942 1.157-8.485l3.471-9.836s1.254-4.725 1.061-5.111c-.193-.386-4.532 3.76-4.532 3.76l-2.893 10.223.771 10.8.965-1.35z" opacity=".1"/>
            <path fill="#575988" fill-rule="nonzero" d="M169.817 85.92s-.579-6.942 1.157-8.485l3.472-9.836s1.35-4.822 1.157-5.207c-.193-.386-4.629 3.857-4.629 3.857l-2.893 10.222.771 10.8.965-1.35z"/>
            <path fill="#F7C4A7" fill-rule="nonzero" d="M171.167 82.835s-9.643-3.086-10.222-3.857c-.579-.772-6.75-5.786-8.872-2.315-2.121 3.472 7.908 4.436 7.908 4.436l10.222 6.172.964-4.436z"/>
            <path fill="#000" fill-rule="nonzero" d="M135.327 96.511l-2.854-.513s-4.676 5.989-7.111 5.381c-2.436-.608-4.677 2.013-2.105 2.854 2.324.76 12.361 1.823 14.272 2.02a.282.282 0 0 0 .31-.274 6.14 6.14 0 0 1 .445-2.174c.514-1.263 0-3.977-.143-5.014a4.982 4.982 0 0 0-.561-1.736l-2.253-.544z" opacity=".1"/>
            <path fill="#F3B5B7" fill-rule="nonzero" d="M135.279 96.698l-2.855-.513s-4.675 5.989-7.107 5.383c-2.432-.606-4.677 2.013-2.104 2.854 2.324.76 12.36 1.823 14.272 2.02a.282.282 0 0 0 .31-.274 6.14 6.14 0 0 1 .427-2.172c.515-1.263 0-3.977-.143-5.014a4.982 4.982 0 0 0-.561-1.736l-2.24-.548z"/>
            <circle cx="175.506" cy="55.931" r="6.172" fill="#000" fill-rule="nonzero" opacity=".1"/>
            <circle cx="174.928" cy="55.931" r="6.172" fill="#F7C4A7" fill-rule="nonzero"/>
            <path fill="#575988" fill-rule="nonzero" d="M181.003 62.006s7.329 2.507 7.329 7.714c0 5.208-4.05 13.5-4.243 20.251-.193 6.75-10.8 5.786-10.8 5.786s-1.544-22.758 0-24.494c1.542-1.736 8.485-8.486 7.714-9.257z"/>
            <path fill="#000" fill-rule="nonzero" d="M179.653 72.806s-2.7 11.958-9.065 9.836c0 0-3.278 4.822-.964 6.943 0 0 5.593 1.35 9.257-2.314 3.665-3.664 6.365-5.014 6.943-9.45.58-4.436.965-10.608-.964-10.03-1.928.58-5.207 5.015-5.207 5.015z" opacity=".1"/>
            <path fill="#575988" fill-rule="nonzero" d="M179.846 72.613s-2.7 11.958-9.065 9.836c0 0-3.279 4.822-.964 6.943 0 0 5.593 1.35 9.257-2.314 3.665-3.664 6.365-5.014 6.943-9.45.579-4.436.965-10.608-.964-10.03-1.929.58-5.207 5.015-5.207 5.015z"/>
            <path fill="#DDDBE2" fill-rule="nonzero" d="M138.388 103.375c0 .017-.012.039-.018.054-.133.33-.234.672-.302 1.02.046-.15.1-.304.162-.459a2.8 2.8 0 0 0 .158-.615zM123.354 103.86c-.795-.261-1.128-.69-1.142-1.14-.328.628-.121 1.334 1.001 1.7 2.324.76 12.363 1.823 14.272 2.02a.282.282 0 0 0 .31-.276.284.284 0 0 0-.252-.287c-2.095-.224-11.896-1.27-14.19-2.018zM106.226 98.058c.05-.142.115-.28.193-.409a1.88 1.88 0 0 0-.454.748c-.422 1.183 10.963 7.435 12.778 8.423a.208.208 0 0 0 .302-.137.208.208 0 0 0-.102-.232c-2.006-1.097-13.134-7.224-12.717-8.393zM120.046 104.611c-.102.027-.202.164-.297.351l.031-.011c.085-.023.23-.193.405-.444a.374.374 0 0 1-.139.104z"/>
            <path fill="#000" fill-rule="nonzero" d="M174.071 61.364c-.544 1.2-.657 2.551-1.057 3.809-.792 2.493-2.78 4.557-5.163 5.354 2.004.798 4.369-.178 5.918-1.798 1.548-1.62 2.457-3.776 3.326-5.875 2.25 1.512 1.975 4.988 2.731 7.694a8.532 8.532 0 0 0 4.542 5.429 8.133 8.133 0 0 0 6.957-.14c-2.062-2.508-4.997-5.966-4.648-9.314.283-2.712-1.663-4.783-1.53-7.505.193-3.857-1.284-5.816-4.05-8.293-1.616-1.448.928-3.49-1.157-2.893-.82.236-1.683-.642-2.488-.353-1.593.579-3.332.355-4.972.74-8.52 2.003 2.386 11.393 1.591 13.145z" opacity=".1"/>
            <path fill="#FC6681" fill-rule="nonzero" d="M174.264 61.17c-.544 1.2-.657 2.552-1.057 3.81-.792 2.493-2.78 4.557-5.163 5.354 2.004.798 4.369-.178 5.917-1.798 1.55-1.62 2.458-3.776 3.327-5.874 2.25 1.512 1.975 4.987 2.731 7.693a8.532 8.532 0 0 0 4.542 5.429 8.133 8.133 0 0 0 6.957-.14c-2.062-2.508-4.804-5.387-4.455-8.736.283-2.711-.14-5.498 0-8.218.193-3.857-1.7-7.583-4.467-10.06-1.616-1.448-4.14-1.633-4.947-1.35-1.593.58-3.333.355-4.972.741-8.525 2.008 2.382 11.398 1.587 13.15z"/>
        </g>
    </g>
</svg>
