<svg xmlns="http://www.w3.org/2000/svg" xmlns:xlink="http://www.w3.org/1999/xlink" width="200" height="120" viewBox="0 0 200 120">
    <defs>
        <path id="a" d="M4 0h192a4 4 0 0 1 4 4v116H0V4a4 4 0 0 1 4-4z"/>
        <linearGradient id="c" x1="-.021%" y1="50.035%" y2="50.035%">
            <stop offset="0%" stop-color="gray" stop-opacity=".25"/>
            <stop offset="54%" stop-color="gray" stop-opacity=".12"/>
            <stop offset="100%" stop-color="gray" stop-opacity=".1"/>
        </linearGradient>
        <linearGradient id="d" x1="49.997%" x2="49.997%" y1="99.972%" y2="-.014%">
            <stop offset="0%" stop-color="gray" stop-opacity=".25"/>
            <stop offset="54%" stop-color="gray" stop-opacity=".12"/>
            <stop offset="100%" stop-color="gray" stop-opacity=".1"/>
        </linearGradient>
    </defs>
    <g fill="none" fill-rule="evenodd">
        <mask id="b" fill="#fff">
            <use xlink:href="#a"/>
        </mask>
        <use fill="#FFF" xlink:href="#a"/>
        <g mask="url(#b)">
            <path fill="#2E3440" fill-rule="nonzero" d="M199.345 113.195a14.139 14.139 0 0 1-3.889 4.666c-.23.185-.464.362-.703.536-.321.226-.65.447-.987.665-2.619 1.662-5.686 2.798-8.68 3.626a77.764 77.764 0 0 1-4.537 1.106c-.264.057-.528.111-.792.169-.263.057-.566.113-.845.169l-.4.076c-7.747 1.429-15.595 1.7-23.5 1.342l-.375-.018-.6-.03c-1.606-.084-3.212-.19-4.82-.32l-.61-.05-.268-.021c-.902-.076-1.803-.159-2.705-.249a185.106 185.106 0 0 1-3.569-.373l-.154-.017-.125-.016c-4.252-.478-8.514-1.053-12.78-1.643l-.604-.084-1.084-.15-.913-.128-.27-.037c-1.441-.202-2.881-.401-4.322-.598l-.233-.032c-2.705-.37-5.425-.727-8.137-1.052l-.353-.042a306.84 306.84 0 0 0-3.33-.377l-.845-.09-1.124-.113a189.28 189.28 0 0 0-9.337-.71c-1.495-.075-2.992-.13-4.494-.17a244.068 244.068 0 0 0-8.774-.02h-.382c-2.379.04-4.763.107-7.148.188l-.43.014h-.141c-5.072.179-10.144.417-15.202.588l-1.236.04h-.18c-1.758.057-3.514.1-5.27.13h-1.044l-.784.01c-.815.009-1.629.013-2.44.014h-.996a180.605 180.605 0 0 1-8.894-.228l-.328-.018c-5.73-.31-11.395-.949-16.959-2.11-.576-.12-1.15-.247-1.724-.379a79.19 79.19 0 0 1-11.293-3.434c-1.732-.676-3.473-1.457-4.79-2.779-3.34-3.381-2.086-10.003 2.26-11.929 3.4-1.506 7.383-.28 11.04-.96.225-.043.447-.1.665-.17.464-.15.917-.336 1.352-.557.149-.075.298-.154.448-.237a11.41 11.41 0 0 0 1-.612 15.364 15.364 0 0 0 2.148-1.723 11.964 11.964 0 0 0 1.846-2.21c.191-.305.36-.624.507-.953.08-.169.15-.351.21-.527.088-.255.156-.516.201-.781.213-1.255-.132-2.479-1.332-3.513a5.167 5.167 0 0 0-1.072-.68 7.835 7.835 0 0 0-.318-.142c-1.545-.651-3.538-.901-5.219-1.353a9.214 9.214 0 0 1-1.494-.519c-.306-.142-.61-.29-.91-.446l-.08-.044a20.353 20.353 0 0 1-6.593-5.41 17.623 17.623 0 0 1-1.555-2.35c-2.97-5.36-3.276-12.226-.186-17.496.375-.64.793-1.253 1.251-1.836.149-.193.303-.382.462-.568 2.941-3.47 7.168-5.823 11.435-7.564 5.728-2.336 11.724-3.812 17.836-4.784 1.24-.198 2.48-.375 3.72-.531 5.19-.663 10.44-1.015 15.654-1.282 4.877-.247 9.776-.406 14.695-.478 1.667-.023 3.336-.032 5.006-.03a292.417 292.417 0 0 1 15.01.388 248.285 248.285 0 0 1 14.074 1.131c11.537 1.262 22.906 3.4 33.883 6.726 1.246.376 2.485.77 3.72 1.183a143.63 143.63 0 0 1 14.845 5.82 132.422 132.422 0 0 1 8.196 4.11 91.15 91.15 0 0 1 10.245 6.425 68.937 68.937 0 0 1 3.72 2.928 53.498 53.498 0 0 1 5.935 5.856 45.733 45.733 0 0 1 2.832 3.647c3.618 5.2 6.046 11.148 7.838 17.224 1.58 5.302 2.632 11.255.125 16.196z" opacity=".1"/>
            <path fill="#2E3440" fill-rule="nonzero" d="M197.071 95.058h-14.443V76.686h6.424c-.159-.19-.32-.38-.481-.568h-5.936v-5.856a69.418 69.418 0 0 0-3.72-2.928v8.791H145.62V56.798h14.845c-.418-.19-.836-.38-1.254-.568h-13.591v-5.253c-1.24-.409-2.48-.803-3.72-1.183v6.424H94.38l-.113-.108 13.747-13.048a225.627 225.627 0 0 0-4.555-.455l-9.52 9.035v-9.705a256.5 256.5 0 0 0-3.72-.169v10.497L78.93 41.55c-1.67 0-3.338.01-5.006.029l15.31 14.53-.113.11H43.57V43.357c-1.24.156-2.48.333-3.72.53V56.23H10.576c-.16.186-.313.375-.462.568h29.733v19.32H9.042c.105.191.215.382.328.568h30.477v18.372h-14.99c-.204.196-.412.386-.626.568h15.616v18.8c1.24.177 2.48.362 3.72.555V95.626h46.649v23.556c1.24 0 2.48.016 3.719.049V95.626h47.961v28.837l.154.017c1.19.133 2.38.258 3.569.374V95.626h33.286v28.497c.284-.052.568-.108.846-.169.277-.06.527-.106.79-.169a85.065 85.065 0 0 0 2.082-.47V95.626h14.56l-.112-.568zm-106.855 0H43.57V76.686h46.646v18.372zm0-18.935H43.57V56.798h45.985l.655.517.006 18.808zm51.68 18.935H93.938V76.686h47.958v18.372zm0-18.935H93.938V56.798h47.958v19.325zm37.01 18.935h-33.287V76.686h33.286v18.372z" opacity=".1"/>
            <path fill="#EAECF0" fill-rule="nonzero" d="M55.17 120.188h-1.046l-.784.01-.086-.891-.08-.845-.368-3.857-.012-.118v-.053l-.103-1.085 1.579-.592.192 1.574.014.117v.014l.39 3.195.12.98.07.57.059.489v.017z"/>
            <path fill="#3A3768" fill-rule="nonzero" d="M85.325 98.722v.072s-1.475 4.03-1.955 7.468c-.032.225-.06.45-.08.676-.025.239-.043.472-.053.699a9.812 9.812 0 0 0-.01.767v.17c0 .112.011.229.018.35.007.12.017.24.027.364.01.125.02.235.032.355.364 3.72 1.745 9.165 1.745 9.165s.046.147.105.397h-.382c-2.379.04-4.763.107-7.148.188l-.43.014h-.142c-5.071.179-10.143.417-15.202.588l-1.235.04h-.18c-1.758.057-3.514.1-5.27.13h-.464c.119-.168.256-.322.409-.46.128-.12.267-.227.414-.322a9.322 9.322 0 0 1 2.595-1.114 2.07 2.07 0 0 1 .594-.073l1.183.024h.183l1.815.035 15.574.31h.04l.11-.022c.18-.045.356-.108.525-.186a1.846 1.846 0 0 0 1.109-1.434c0-.052.013-.108.017-.169a1.995 1.995 0 0 0 0-.247c0-.057 0-.118-.014-.18-.013-.063-.017-.126-.028-.19-.376-2.098-1.015-8.556-1.015-8.556v.02s0-.276.015-.739V106.65c0-.103.012-.215.019-.338 0-.073.01-.147.015-.225l.029-.351a93.561 93.561 0 0 0 .02-.255v-.026c.252-2.494 1.045-6.441 3.55-7.904 1.176-.688 1.953-.826 2.465-.691.748.196.935.974.976 1.48v.097c.013.095.021.19.024.286z"/>
            <path fill="#000" fill-rule="nonzero" d="M85.325 98.722v.052s-1.216 3.322-1.796 6.507c-.04.226-.078.444-.111.655l-.048.324c-.032.226-.06.451-.08.677-.025.238-.043.471-.053.698a9.812 9.812 0 0 0-.01.767v.17c0 .113.011.23.018.35.007.12.017.241.027.365a21.304 21.304 0 0 0 .07.708c.054.478.121.98.199 1.491.53 3.444 1.508 7.302 1.508 7.302s.05.155.108.416h-.382c-2.379.039-4.762.106-7.148.187l-.43.014h-.141c-5.072.18-10.144.417-15.202.588l-1.236.04h-.18c-1.758.057-3.514.1-5.269.131H54.69c.123-.175.265-.335.423-.478a2.8 2.8 0 0 1 .415-.325 9.424 9.424 0 0 1 2.596-1.114c.193-.052.393-.076.593-.071l1.183.023h.183l1.82.036 15.587.308h.027s.045 0 .121-.026c.183-.045.36-.109.53-.19.581-.25.994-.78 1.093-1.406 0-.052.014-.108.017-.169a1.995 1.995 0 0 0 0-.247c0-.057 0-.118-.013-.18-.014-.063-.017-.137-.029-.208-.375-2.098-1.014-8.557-1.014-8.557s0-.275.015-.738V106.608c0-.103.012-.214.018-.338 0-.072.01-.147.016-.224.008-.114.018-.23.028-.352a93.561 93.561 0 0 0 .02-.255v-.026c.031-.31.072-.645.122-.995.352-2.448 1.231-5.645 3.422-6.932 1.145-.676 1.91-.818 2.425-.702.79.181.978.996 1.014 1.51v.098c.015.11.023.22.024.33z" opacity=".1"/>
            <path fill="#3A3768" fill-rule="nonzero" d="M84.892 98.578s-2.206 6.029-2.1 9.637c.107 3.607 1.83 10.387 1.83 10.387s.074.238.153.619c-2.379.039-4.762.106-7.148.187l-.43.014h-.141c-5.072.179-10.144.417-15.202.588l-1.236.04h-.18c-1.758.057-3.514.1-5.269.13h-1.045c.233-.39.55-.723.928-.975l.046-.032a9.41 9.41 0 0 1 2.593-1.09c.194-.052.394-.076.594-.071l1.562.03h.183l1.881.037 15.174.303a2.551 2.551 0 0 0 .82-.308c.19-.11.361-.25.507-.414.32-.363.532-.904.39-1.69-.377-2.098-1.014-8.557-1.014-8.557s-.108-7.858 3.658-10.064c1.522-.89 2.377-.86 2.856-.507.014.009.028.02.04.03.66.531.55 1.706.55 1.706z"/>
            <path fill="#EAECF0" fill-rule="nonzero" d="M24.182 113.371l-.061.63-.369 3.87c-.576-.12-1.15-.246-1.724-.378l.431-3.518.145-1.196 1.578.592z"/>
            <path fill="#EFC6CD" fill-rule="nonzero" d="M13.362 112.12l9.207-19.596 37.087 2.893 3.418 16.703z"/>
            <path fill="#D48A9B" fill-rule="nonzero" d="M13.362 113.83v-1.71h49.712v2.499z"/>
            <path fill="#DFE6F5" fill-rule="nonzero" d="M27.38 109.258l22.242.453a.308.308 0 0 0 .3-.404l-3.468-9.353-14.98-.285-4.432 9.071a.369.369 0 0 0 .338.518z"/>
            <path fill="#000" fill-rule="nonzero" d="M27.38 109.258l22.242.453a.308.308 0 0 0 .3-.404l-3.468-9.353-14.98-.285-4.432 9.071a.369.369 0 0 0 .338.518z" opacity=".15"/>
            <path fill="#DFE6F5" fill-rule="nonzero" d="M27.201 108.867l22.472.474-3.055-9.253a.762.762 0 0 0-.708-.524l-14.442-.274-4.267 9.577z"/>
            <path fill="#4C4C56" fill-rule="nonzero" d="M29.057 106.773l2.694-5.926a.719.719 0 0 1 .652-.42h6.693c.395 0 .715.32.715.716v6.402a.717.717 0 0 1-.75.715l-9.388-.478a.715.715 0 0 1-.616-1.01z"/>
            <path fill="#D1D9EC" fill-rule="nonzero" d="M42.258 106.022l.115-3.381a.519.519 0 0 1 .517-.507h1.978c.25 0 .465.182.507.429l.582 3.363a.519.519 0 0 1-.507.607l-2.677.023a.517.517 0 0 1-.515-.534z"/>
            <path fill="#4C4C56" fill-rule="nonzero" d="M16.053 84.03l7.458-.622c.223-.03.44.093.53.3l7.052 15.96-3.936 8.836c.124-.277.215 1.88-.676.01l-11.207-23.38c-.15-.312.43-1.06.78-1.104z"/>
            <path fill="#000" fill-rule="nonzero" d="M16.053 84.03l7.458-.622c.223-.03.44.093.53.3l7.052 15.96-3.936 8.836c.124-.277.215 1.88-.676.01l-11.207-23.38c-.15-.312.43-1.06.78-1.104z" opacity=".15"/>
            <path fill="#4C4C56" fill-rule="nonzero" d="M16.053 84.03l7.836-1c.224-.03.44.092.531.299l7.053 15.96-4.267 9.578-11.553-24.111a.507.507 0 0 1 .4-.726z"/>
            <path fill="#2E3440" fill-rule="nonzero" d="M18.01 85.153l5.665-.883a.507.507 0 0 1 .549.312l5.934 14.515a.46.46 0 0 1-.01.372l-2.717 5.677a.458.458 0 0 1-.83 0l-8.975-19.273a.507.507 0 0 1 .383-.72z"/>
            <path fill="url(#c)" fill-rule="nonzero" d="M77.457 111.86s-.116.192-.287.507l-.015.029c-.152.27-.338.625-.528 1.014l-.43.014h-.141c-5.072.179-10.144.417-15.202.588l-1.236.04h-.18c-1.758.057-3.514.1-5.269.13h-1.045l-.784.01c-.815.009-1.628.013-2.44.014h-.967a180.605 180.605 0 0 1-8.894-.228l-.328-.019c.58-1.26 1.616-3.328 2.458-3.99.65-.507 5.326-1.07 9.625-1.482l.453-.044h.01l1.2-.112c1.645-.15 3.138-.272 4.203-.355l.098-.008-.554-1.86-.803-2.705.228-2.272.019-.183h-.026a1.493 1.493 0 0 1-.676-.084l-8.029-.277h-.145l-3.084-.11a194.36 194.36 0 0 1-2.874-.112.729.729 0 0 1-.142-.039.64.64 0 0 1-.196-.118.784.784 0 0 1-.17-.203H41.2l-.437.029-.221.015c-.008-.024-.015-.047-.024-.07l-.059-.192h-.116l-1.522-.032h-.027s-3.926.3-5.976-.448c-.753-.274-1.253-.688-1.214-1.309.008-.14.038-.28.088-.412-.66-1.233 2.56-3.481 5.016-2.86.663.189 1.362.218 2.039.084a2.624 2.624 0 0 0 1.097-.528c-.04-.025-.083-.047-.122-.067a1.89 1.89 0 0 0-.536-.186l.666-.195h.01s2.367-.216 3.907-.302h.01a15.93 15.93 0 0 1 1.076-.032c1.014.028 2.99-.697 3.075-.92.085-.223.987 0 .987 0l.79-.308c.79-.306 1.24-.723 1.24-1.031 0-.308.706-.64.706-.64.318-.535.941-1.108 1.596-1.615a19.947 19.947 0 0 1 1.59-1.101c.17-1.095.395-2.18.677-3.253.299-.999 1.227-1.74 1.56-1.98l.122-.08a8.766 8.766 0 0 0-.413-1.34 4.9 4.9 0 0 0-.104-.23l-.053-.1a5.917 5.917 0 0 1-1.106.107 5.8 5.8 0 0 1-5.604-4.228v-.01a5.724 5.724 0 0 1-.01-2.982 4.705 4.705 0 0 1 .1-.335c.015-.046.03-.093.047-.139-.25.038-.503.06-.756.066h-.169a3.577 3.577 0 0 1-1.415-.235 1.92 1.92 0 0 1-.326-.179 1.586 1.586 0 0 1-.348-.276c.38-.29.628-.722.688-1.196.045-.366-.015-.773.203-1.07.111-.135.245-.25.395-.339.9-.613 1.613-1.455 2.426-2.18.814-.726 1.797-1.353 2.891-1.387 1.468-.046 2.76.976 4.213 1.168.447.06.905.04 1.341.15.489.154.949.387 1.36.69.373.212.702.492.971.825.187.29.321.61.396.946.188.708.302 1.433.338 2.165.039.766 0 1.537.081 2.298.058.66.28 1.296.65 1.848h.021c.065.09.135.176.21.257a6.357 6.357 0 0 1-.434.121 6.857 6.857 0 0 1-.743.147c-.114.02-.23.029-.346.03a1.033 1.033 0 0 1-.24-.023l.148.1.413.277.156.103.312.208c.071-.208.17-.263.283-.25.23-.216.573.252.573.252.2.385.742.77 1.22 1.053.282.166.571.317.868.453 6.317 3.765 5.917 9.398 6.289 9.845.372.446.395 2.062.395 2.062s.932 5.493 1.353 5.968c.42.475.027.64.394 1.172.367.53.282 1.95.282 1.95s.254 3.346 1.156 4.072c.81.65 1.892 6.127 2.107 7.246l.047.208z" transform="translate(1 6)"/>
            <path fill="#D38884" fill-rule="nonzero" d="M41.428 100.237s-.878 1.38-3.363.745c-2.485-.635-5.773 1.769-4.835 2.955.938 1.187 6.989-.338 6.989-.338l2.321-.47-.152-1.932-.96-.96z"/>
            <path fill="#000" fill-rule="nonzero" d="M41.428 100.237s-.878 1.38-3.363.745c-2.485-.635-5.773 1.769-4.835 2.955.938 1.187 6.989-.338 6.989-.338l2.321-.47-.152-1.932-.96-.96z" opacity=".1"/>
            <path fill="#A36468" fill-rule="nonzero" d="M42.236 100.162l-1.077-.055-.663.192s2.1.305 1.522 3.15l2.263-.137-2.045-3.15z"/>
            <path fill="#000" fill-rule="nonzero" d="M42.236 100.162l-1.077-.055-.663.192s2.1.305 1.522 3.15l2.263-.137-2.045-3.15z" opacity=".1"/>
            <path fill="#444053" fill-rule="nonzero" d="M56.491 93.799s-2.955 1.69-3.785 3.095c0 0-.69.338-.69.636s-.443.717-1.215 1.014l-.775.305s-.884-.222-.967 0c-.083.221-2.015.938-3.01.91-.997-.026-4.89.34-4.89.34a3.46 3.46 0 0 1 1.961 3.838l9.2-.385 3.48-.774 2.045-2.044-1.354-6.935z"/>
            <path fill="#000" fill-rule="nonzero" d="M56.491 93.799s-2.955 1.69-3.785 3.095c0 0-.69.338-.69.636s-.443.717-1.215 1.014l-.775.305s-.884-.222-.967 0c-.083.221-2.015.938-3.01.91-.997-.026-4.89.34-4.89.34a3.46 3.46 0 0 1 1.961 3.838l9.2-.385 3.48-.774 2.045-2.044-1.354-6.935z" opacity=".1"/>
            <path fill="#D38884" fill-rule="nonzero" d="M42.934 106.022l-1.302-.025-1.521-.033s-7.185.553-7.045-1.744c.14-2.298 5.667-3.104 6.436-2.445.583.499 1.932.901 2.548 1.065.196.053.316.081.316.081l.568 3.101z"/>
            <path fill="#000" fill-rule="nonzero" d="M42.934 106.022l-1.302-.025c-.519-1.784.083-2.766.425-3.152.196.053.316.081.316.081l.561 3.096z" opacity=".1"/>
            <path fill="#A36468" fill-rule="nonzero" d="M43.811 106.12l-1.352.095-.642.044c-.885-2.597.544-3.62.544-3.62h.423l.691.083.336 3.398z"/>
            <path fill="#D38884" fill-rule="nonzero" d="M60.194 88.883l-1.603 3.043s-.245-3.082-.959-4.535c-.182-.372-.395-.635-.644-.715-.676-.213 3.212-4.475 3.212-4.475.13.027.874.507 1.786 1.128 1.002.676 2.21 1.501 3.02 2.029 1.54.982-4.812 3.525-4.812 3.525z"/>
            <path fill="#444053" fill-rule="nonzero" d="M58.138 88.94s-1.288.827-1.647 2.042c-.358 1.216-.691 3.398-.691 3.398s.581 5.221.884 5.47c.302.248 1.454 5.469 1.454 5.469l1.116-.746-1.464-6.575s.973-8.448.348-9.058z"/>
            <path fill="#000" fill-rule="nonzero" d="M58.138 88.94s-1.288.827-1.647 2.042c-.358 1.216-.691 3.398-.691 3.398s.581 5.221.884 5.47c.302.248 1.454 5.469 1.454 5.469l1.116-.746-1.464-6.575s.973-8.448.348-9.058z" opacity=".1"/>
            <path fill="#A36468" fill-rule="nonzero" d="M63.744 100.587h-6.44l1.043-10.16h5.397z"/>
            <path fill="#67647E" fill-rule="nonzero" d="M60.94 116.37l-1.26.484-.17.062-4.534 1.743-1.73.665-2.353.904h-.96A180.605 180.605 0 0 1 41.04 120c.571-1.253 1.57-3.258 2.385-3.905.636-.508 5.184-1.055 9.382-1.468.524-.05 1.041-.1 1.545-.145l.12-.012c1.667-.152 3.175-.276 4.226-.36l.17-.014 1.322-.101.138-.139.17.724.14.578.302 1.212z"/>
            <path fill="#000" fill-rule="nonzero" d="M60.94 116.37l-1.26.484-.17.062-4.534 1.743-1.73.665-2.353.904h-.96A180.605 180.605 0 0 1 41.04 120c.571-1.253 1.57-3.258 2.385-3.905.636-.508 5.184-1.055 9.382-1.468.524-.05 1.041-.1 1.545-.145l.12-.012c1.667-.152 3.175-.276 4.226-.36l.17-.014 1.322-.101.138-.139.17.724.14.578.302 1.212z" opacity=".1"/>
            <path fill="#67647E" fill-rule="nonzero" d="M62.016 114.604l-.105 3.479v.207l-.052 1.722-1.236.04h-.18c-1.757.057-3.514.1-5.269.13H54.13l-.784.01c-.815.009-1.628.013-2.44.014h-.972c.88-.544 2.017-1.144 3.241-1.744.55-.271 1.12-.54 1.69-.805a142.33 142.33 0 0 1 4.319-1.907l.16-.068a151.904 151.904 0 0 1 2.673-1.1v.022z"/>
            <path fill="#000" fill-rule="nonzero" d="M50.724 100.304c.317.66.643 1.333 1.165 1.846.083.082.227.156.301.066a.213.213 0 0 0 .032-.125 1.613 1.613 0 0 0-.304-.862c-.17-.26-.369-.497-.519-.767-.15-.271-.323-.792-.661-.863-.435-.091-.11.506-.014.705zM61.979 83.324a5.696 5.696 0 0 1-4.347 4.063c-.182-.373-.395-.636-.644-.716-.676-.213 3.212-4.475 3.212-4.475.124.027.868.516 1.779 1.128z" opacity=".1"/>
            <path fill="#D38884" fill-rule="nonzero" d="M62.182 81.7a5.69 5.69 0 1 1-5.69-5.692 5.679 5.679 0 0 1 5.69 5.691z"/>
            <path fill="#67647E" fill-rule="nonzero" d="M58.674 90.152s-1.184 1.437-.994 2.377h1.435l1.05-1.183-1.491-1.194z"/>
            <path fill="#000" fill-rule="nonzero" d="M62.883 84.085L58.37 90.29s1.16 1.658 1.713 1.741c.553.083 3.706-7.34 3.706-7.34l-.905-.607z" opacity=".1"/>
            <path fill="#A36468" fill-rule="nonzero" d="M62.94 83.973l-4.515 6.215s1.16 1.656 1.713 1.74c.553.082 3.706-7.34 3.706-7.34l-.903-.615z"/>
            <path fill="#67647E" fill-rule="nonzero" d="M57.845 91.922s-.221 3.48-.443 4.171c-.221.691 0 7.043 0 7.043l2.073-.855-.36-9.752-1.27-.607z"/>
            <path fill="#000" fill-rule="nonzero" d="M77.818 118l-.103.17c-.064.104-.133.234-.223.4a21.947 21.947 0 0 0-.436.845c-5.072.18-10.144.418-15.202.588l-1.236.041h-.18l-.53-1.792v-.019l-.056-.189-.338-1.126-.338-1.145-.35-1.22-.129-.443-.033-.112-.552-1.876-.747-2.548.242-2.431.017-.184.218-2.178.03-.646.017-.338v-.096l.037-.785.112-2.333.058-1.193.01-.181.115-2.396.326-.979.169-.487.375-1.13.081-.28c.119-.424.357-1.262.58-2.069l.02-.07.016-.052.159-.573.198-.735c.074-.282.123-.484.135-.553.018-.12.338-.65.757-1.352.846-1.399 2.117-3.456 2.262-4.146v-.017a.845.845 0 0 1 .036-.123c.07-.206.169-.262.274-.249a.338.338 0 0 1 .133.053c.102.068.191.154.264.253.198.38.727.761 1.195 1.043l.091.053.055.032c.388.221.703.363.703.363 6.188 3.73 5.802 9.31 6.16 9.752.359.441.388 2.046.388 2.046s.91 5.442 1.325 5.917c.414.475.029.635.387 1.161.359.526.276 1.916.276 1.916s.248 3.313 1.133 4.032c.884.718 2.1 7.381 2.1 7.381z" opacity=".1"/>
            <path fill="#444053" fill-rule="nonzero" d="M77.984 117.946l-.074.128c-.06.105-.154.27-.268.479l-.011.023c-.129.239-.281.528-.432.846h-.142c-5.071.179-10.143.417-15.202.588l-1.235.04-.53-1.798v-.019l-.055-.189-.35-1.183-.338-1.15-.339-1.148-.133-.46-.578-1.975-.764-2.601.21-2.115.03-.283.233-2.402.09-1.873.11-2.264.028-.593.032-.687.014-.289.11-2.262.326-.977.14-.421.328-.99.07-.209s.316-1.11.622-2.211l.034-.122c.027-.094.052-.19.079-.282a9.99 9.99 0 0 0 .076-.28c.086-.308.17-.596.227-.833a9.94 9.94 0 0 0 .15-.606c.019-.12.338-.667.773-1.377.8-1.322 1.966-3.212 2.213-3.996a1.27 1.27 0 0 0 .034-.124.644.644 0 0 1 .147-.338c.226-.218.563.25.563.25.197.38.727.763 1.195 1.044.273.164.556.313.845.448 6.188 3.73 5.802 9.31 6.16 9.753.36.443.388 2.044.388 2.044s.911 5.442 1.325 5.917c.415.475.03.636.388 1.16.358.524.275 1.934.275 1.934s.249 3.315 1.133 4.033c.884.719 2.103 7.37 2.103 7.37z"/>
            <path fill="#000" fill-rule="nonzero" d="M65.367 85.395c-.607.882-1.596 2.434-1.86 3.55 0 0-.967.996-1.327.94-.36-.056.338.746.338.746l-3.799 5.264.54-1.618s1.132-3.978 1.183-4.336c.05-.359 2.801-4.465 3.02-5.498.169-.827.71-.083.71-.083.196.372.725.756 1.195 1.035z" opacity=".1"/>
            <path fill="#444053" fill-rule="nonzero" d="M65.367 85.285c-.607.88-1.596 2.434-1.86 3.542 0 0-.967.994-1.327.94-.36-.054.338.745.338.745l-3.799 5.265.54-1.618s1.132-3.978 1.183-4.338c.05-.36 2.801-4.463 3.02-5.496.169-.829.71-.083.71-.083.196.38.725.76 1.195 1.043z"/>
            <path fill="#000" fill-rule="nonzero" d="M70.47 96.193c.028 1.207-1.74 2.855-1.823 2.952-.083.096-5.498 4.564-5.498 4.564l-3.889 2.982a3.303 3.303 0 0 1-1.521.704l.265-2.668.262-5.41c.607-.676 1.196-1.386 1.21-1.613.026-.468 1.013-.967 1.013-.967s.692-.58.58-.911c-.111-.331.367-1.919.367-1.919.249-4.504 4.89-4.945 4.89-4.945s2.238.884 3.812 1.822c1.574.939.304 4.203.331 5.409zM43.811 106.12l-1.352.095c-.571-.972.215-3.576.215-3.576h.11l.691.083.336 3.398z" opacity=".1"/>
            <path fill="#444053" fill-rule="nonzero" d="M66.325 88.688s-4.64.443-4.889 4.945c0 0-.47 1.576-.36 1.907.11.332-.58.911-.58.911s-.994.497-1.014.967c-.02.47-2.536 3.033-2.536 3.033s-1.048 1.194-3.48 1.32c-2.43.124-3.563.868-3.563.868s-1.184-.828-2.046-.58c-.862.249-5.055.58-5.055.58s-1.114 3.692.276 3.924c.169.027 13.846.497 13.846.497s.935.441 2.343-.636 3.889-2.984 3.889-2.984 5.41-4.475 5.497-4.564c.088-.09 1.86-1.747 1.823-2.952-.037-1.205 1.244-4.467-.338-5.41-1.583-.943-3.813-1.826-3.813-1.826z"/>
            <path fill="#000" fill-rule="nonzero" d="M62.182 81.7c0 .598-.094 1.193-.28 1.762a2.379 2.379 0 0 1-.209-.289 744.93 744.93 0 0 0-.793-1.217 3.29 3.29 0 0 0-.806-.95c-.338-.24-.818-.338-1.184-.125-.32.19-.478.576-.507.948-.01.374 0 .747.029 1.12a.617.617 0 0 1-.103.403.663.663 0 0 1-.436.17l-.508.069a.363.363 0 0 1-.466-.232c-.421-.762-.712-1.709-1.501-2.076-.487-.226-1.13-.211-1.443-.647-.213-.298-.184-.702-.121-1.064.069-.408.167-.81.296-1.203.09-.278.289-.83-.154-.886-.301-.04-.717.28-.87.507-.151.226-.189.529-.297.788-.207.445-.58.791-1.04.965-.23.094-.47.16-.716.194a5.69 5.69 0 0 1 11.107 1.749l.002.013z" opacity=".1"/>
            <path fill="#444053" fill-rule="nonzero" d="M53.128 77.846c-.153.235-.189.528-.297.786-.207.445-.58.791-1.038.966-.456.17-.939.256-1.425.253-.788.024-1.667-.096-2.174-.7a1.78 1.78 0 0 0 .676-1.183c.044-.362-.015-.766.2-1.062.109-.13.239-.24.385-.326.882-.609 1.579-1.444 2.377-2.16.798-.718 1.76-1.341 2.832-1.375 1.435-.044 2.705.967 4.125 1.158.436.059.886.039 1.312.149.479.149.93.377 1.333.676.366.211.688.489.952.818.183.288.314.605.387.937.187.701.3 1.42.339 2.145.038.758 0 1.522.08 2.276.082.754.322 1.521.838 2.08a7.439 7.439 0 0 1-1.152.265c-.244.057-.5.037-.732-.058a1.29 1.29 0 0 1-.446-.482l-.793-1.217a3.29 3.29 0 0 0-.806-.95c-.339-.24-.819-.338-1.184-.125-.321.19-.477.576-.507.948-.01.374 0 .747.029 1.12a.617.617 0 0 1-.103.404.664.664 0 0 1-.438.169l-.507.069a.363.363 0 0 1-.467-.232c-.421-.764-.712-1.709-1.501-2.076-.487-.226-1.13-.211-1.442-.647-.213-.298-.185-.702-.122-1.064.069-.408.168-.81.296-1.203.09-.278.289-.83-.154-.888-.304-.032-.72.287-.873.53z"/>
            <path fill="#000" fill-rule="nonzero" d="M66 91.214c.429-.06.878-.098 1.279.066-1.043-.428-2.74-.264-3.69.324.086.198 2.08-.344 2.412-.39zM66.5 92.6c1.04.07 2.113.215 3.098-.123-.825-.284-1.732-.105-2.601-.191-.694-.07-1.399-.31-2.075-.134-.282.073-1.322.551-1.25.901A5.618 5.618 0 0 1 66.5 92.6zM63.746 94.872c.217-.023.437 0 .645.068.78.184 1.58.272 2.38.262.613 0 1.272-.093 1.718-.507l-4.743.177zM60.396 100.162c.728.334 1.527.48 2.325.423a10.26 10.26 0 0 0 2.34-.45c.338-.1.707-.225.904-.519l-5.569.546zM67.88 100.906a12.42 12.42 0 0 0 5.16 1.598 70.034 70.034 0 0 0-2.769-1.043 20.057 20.057 0 0 0-2.916-.781c.188.04.367.117.526.226zM70.435 99.937c.318.053.64.071.962.053.17 0 .37-.024.47-.17-.725.031-1.44-.155-2.148-.315-.202-.048-.563-.16-.733-.04.322.23 1.044.391 1.45.472zM74.795 115.04c.38.652.766 1.312 1.292 1.86.304.298.628.576.969.831-.627-1.6-1.265-3.212-2.269-4.61-.254-.352-.632-.856-1.094-.92-.132.39.201 1.082.362 1.449.22.477.468.94.74 1.39zM56.312 103.08c-.029.27-.05.57.106.792.078.109.192.187.322.221-.082-.02-.17-.815-.19-.923-.037-.222 0-.636-.157-.8-.04.234-.056.474-.081.71zM57.191 102.77c.113.48.419.894.845 1.144-.296-.365-.392-.846-.649-1.246-.083-.129-.18-.313-.338-.338.04.148.087.295.142.44zM56.447 97.9c-.504.3-1.11.377-1.674.212-.126-.038-.422-.17-.351-.355.07-.186.414-.058.554-.041l.736.093c.135.017.625.155.735.091zM53.959 99.104c.346-.044.657.196.982.326.359.12.738.17 1.116.149.189 0 .404-.015.52-.169-.88-.201-1.704-.423-2.618-.306z" opacity=".1"/>
            <path fill="#A36468" fill-rule="nonzero" d="M58.138 88.938h.056l.414 1.49-.47.5z"/>
            <g fill="#000" fill-rule="nonzero" opacity=".1">
                <path d="M48.978 77.13a3.49 3.49 0 0 0-.076.735c.021-.078.036-.157.046-.237.02-.162.018-.333.03-.499zM54.021 77.322a.298.298 0 0 1 .277.338c.08-.28.124-.625-.221-.676-.301-.037-.717.282-.87.516-.151.233-.188.529-.297.787-.206.445-.579.792-1.038.966-.455.17-.938.256-1.425.253-.717.022-1.51-.077-2.029-.55a1.72 1.72 0 0 1-.2.182c.506.603 1.386.723 2.175.7.486.002.968-.083 1.424-.254.459-.174.832-.52 1.04-.965.107-.259.141-.551.295-.786s.568-.548.87-.51zM62.951 83.216c-.244.057-.5.037-.732-.058a1.305 1.305 0 0 1-.446-.482 744.93 744.93 0 0 0-.793-1.217 3.263 3.263 0 0 0-.805-.95c-.338-.242-.82-.338-1.183-.125-.323.19-.479.576-.516.948v.046c.061-.273.227-.51.461-.663.36-.213.846-.115 1.184.125.326.263.6.586.806.95l.793 1.218c.104.196.258.363.447.481.23.096.486.116.73.058.39-.058.776-.147 1.153-.266a2.475 2.475 0 0 1-.206-.255 7.258 7.258 0 0 1-.893.19zM58.405 82.855a.676.676 0 0 1-.436.17l-.507.069a.363.363 0 0 1-.467-.232c-.421-.764-.712-1.709-1.501-2.076-.487-.226-1.128-.211-1.44-.647a1.244 1.244 0 0 1-.151-.886l-.029.154c-.06.361-.091.765.123 1.063.313.436.956.421 1.44.647.792.367 1.083 1.312 1.504 2.077a.484.484 0 0 0 .194.231c.088.03.182.034.272.012l.508-.07a.663.663 0 0 0 .436-.168.607.607 0 0 0 .103-.404.507.507 0 0 1-.05.06z"/>
            </g>
            <path fill="#EAECF0" fill-rule="nonzero" d="M128.378 122.72l-1.084-.15V106.57l.222.068.676.208v1.54l.008.695.016 1.43v1.951l.08 7.204v.193l.03 2.536v.038z"/>
            <path fill="#D3DAE1" fill-rule="nonzero" d="M128.986 122.805l-.603-.085V122.392l-.029-2.536v-.192l-.081-7.204V110.509l-.015-1.43-.009-.695v-1.54h.651v2.067l.014 1.545V112.091l.062 7.56v.195l.02 2.514v.04z"/>
            <path fill="#EAECF0" fill-rule="nonzero" d="M194.751 104.588v13.81c-.32.225-.65.446-.987.664l-.013-11.496v-1.221l1-1.757z"/>
            <path fill="#D3DAE1" fill-rule="nonzero" d="M195.455 104.389v13.474c-.23.184-.465.362-.704.536v-13.81l.704-.2z"/>
            <path fill="#EAECF0" fill-rule="nonzero" d="M179.756 123.958c-.416.084-.834.169-1.251.241l-.016-12.495v-.54l1.206-.508v1.146l.06 12.156z"/>
            <path fill="#D3DAE1" fill-rule="nonzero" d="M180.55 110.26v13.525c-.263.058-.527.112-.79.17l-.057-12.151v-1.146l.08-.038.767-.36z"/>
            <path fill="#EAECF0" fill-rule="nonzero" d="M108.893 120.215l-1.124-.114-.143-14.09v-.67h1.104v.766z"/>
            <path fill="#D3DAE1" fill-rule="nonzero" d="M109.73 120.304l-.845-.09-.169-14.107v-.766h.854V106.18z"/>
            <path fill="#000" fill-rule="nonzero" d="M179.774 110.622l.773-.363v1.705l-.752.252zM195.453 104.385v2.61l-.702.236-1.002.333-.002-1.22 1.004-1.757z" opacity=".1"/>
            <path fill="#D48A9B" fill-rule="nonzero" d="M195.453 99.368v7.227l-15.658 5.219-.102-7.73z"/>
            <path fill="#EFC6CD" fill-rule="nonzero" d="M107.418 98.866l20.578-3.916 67.457 4.418-15.76 4.717z"/>
            <path fill="#000" fill-rule="nonzero" d="M109.576 105.34l.007.84-.852-.075-1.107-.095-.005-.67zM128.858 107.836l-.65-.057-.914-.078v-1.13l.903.274h.653z" opacity=".1"/>
            <path fill="#D48A9B" fill-rule="nonzero" d="M107.418 98.866v6.725l72.377 6.223-.102-7.73z"/>
            <path fill="#D48A9B" fill-rule="nonzero" d="M164.804 106.862h-9.454v-3.43l9.454.666z"/>
            <path fill="#000" fill-rule="nonzero" d="M164.804 106.862h-9.454v-3.43l9.454.666z" opacity=".1"/>
            <path fill="#000" fill-rule="nonzero" d="M142.652 102.68v5.42l36.289 2.76v-5.771l-14.154-.803-1.407 1.254-5.771-.4-2.058-1.507z" opacity=".1"/>
            <path fill="#FFF" fill-rule="nonzero" d="M142.45 102.478v5.422l36.29 2.76v-5.772l-14.154-.803-1.405 1.256-5.774-.403-2.057-1.506z"/>
            <path fill="#D48A9B" fill-rule="nonzero" d="M120.065 101.023l8.583.603-.1 2.727h-5.604l-3.748-1.472z"/>
            <path fill="#000" fill-rule="nonzero" d="M120.065 101.023l8.583.603-.1 2.727h-5.604l-3.748-1.472z" opacity=".1"/>
            <path fill="#000" fill-rule="nonzero" d="M108.623 100.27v4.87l32.925 2.61v-5.17l-12.698-.754-1.356 1.004-5.12-.3-2.108-1.306z" opacity=".1"/>
            <path fill="#FFF" fill-rule="nonzero" d="M108.422 100.07v4.868l32.925 2.61v-5.17l-12.699-.752-1.354 1.003-5.12-.301-2.109-1.305z"/>
            <path fill="#000" fill-rule="nonzero" d="M178.944 100.088l4.616.303-7.647 2.289-3.895-.281z" opacity=".1"/>
            <path fill="#FFF" fill-rule="nonzero" d="M178.944 99.888l4.616.301-7.647 2.29-3.895-.281z"/>
            <path fill="#D3DAE1" fill-rule="nonzero" d="M178.393 100.407c.183-.079.377.068.571.105.11.022.225 0 .339.022.226.03.45.181.666.105l-1.576-.232zM178.155 100.544c.18-.077.375.07.57.107.111.02.226 0 .338.02.224.03.45.183.666.107l-1.574-.234zM177.607 100.822c.18-.078.375.067.57.104.111.022.225 0 .338.022.226.03.451.183.666.105l-1.574-.231z"/>
            <path fill="#000" fill-rule="nonzero" d="M147.805 97.555l10.29.675-2.192 3.15-11.314-1.21z" opacity=".1"/>
            <path fill="#3A3768" fill-rule="nonzero" d="M147.604 97.354l10.29.673-2.192 3.151-11.316-1.208z"/>
            <path fill="#D5E1F4" fill-rule="nonzero" d="M148.057 97.586l8.975.55-1.912 2.566-9.868-.986z"/>
            <path fill="#3A3768" fill-rule="nonzero" d="M142.038 123.324c0 .047 0 .096-.008.143-.009.048 0 .085-.014.127a2.855 2.855 0 0 1-.245.86c-4.252-.478-8.514-1.052-12.781-1.643l-.604-.084-1.083-.15-.913-.127c-1-.025-1.996-.119-2.983-.28a15.427 15.427 0 0 1-1.842-.388 486.35 486.35 0 0 0-8.137-1.052l-.354-.042c.065-.287.119-.461.119-.461s.581-2.286 1.065-4.84a50.465 50.465 0 0 0 .485-2.996 22.111 22.111 0 0 0 .108-1.028l.027-.357c.009-.117.012-.22.017-.326v-.16c0-.228 0-.466-.008-.711a20.964 20.964 0 0 0-.575-3.62 28.67 28.67 0 0 0-.147-.603c-.015-.064-.032-.127-.05-.19-.545-2.115-1.183-3.842-1.183-3.842v-.03-.02-.042-.236-.065a2.59 2.59 0 0 1 .092-.524c.018-.06.04-.12.064-.179.122-.345.407-.608.76-.703.48-.124 1.203 0 2.295.647.178.103.347.22.507.349.081.064.17.132.237.204 1.25 1.165 1.917 3.087 2.272 4.842l.037.188a20.031 20.031 0 0 1 .247 1.679c0 .087.019.169.027.258.008.09.017.17.022.25.022.264.037.508.047.714.029.548.024.884.024.884v.017s0 .025-.008.073a.032.032 0 0 0 0 .013v.152l-.026.249-.052.507c-.014.142-.03.296-.048.458-.037.338-.077.73-.121 1.143l-.027.233-.122 1.094c-.046.423-.096.846-.145 1.263-.012.091-.024.183-.034.272a55.631 55.631 0 0 1-.352 2.51c-.016.084-.027.17-.034.256a.79.79 0 0 0 0 .088 1.733 1.733 0 0 0 0 .23c.083 1.444 1.644 1.69 1.644 1.69l7.085-.14 1.051-.02.612-.012 5.524-.11.507-.01 2.747-.054c.187-.004.373.018.553.066a8.778 8.778 0 0 1 2.4 1.05 2.822 2.822 0 0 1 .645.568c.375.449.606 1 .664 1.582v.117c.014.081.014.172.012.269z"/>
            <path fill="#000" fill-rule="nonzero" d="M142.038 123.324c0 .047 0 .096-.008.143-.009.048 0 .085-.014.127-.04.298-.126.588-.254.86-4.251-.478-8.513-1.052-12.78-1.643l-.604-.084-1.084-.15-.913-.127c-.999-.025-1.995-.119-2.982-.28a15.427 15.427 0 0 1-1.843-.388 486.35 486.35 0 0 0-8.137-1.052l-.353-.042c.064-.297.122-.478.122-.478s.475-1.86.926-4.114c.032-.155.063-.31.093-.468l.046-.238c.105-.553.206-1.121.296-1.68.07-.447.135-.89.189-1.316a22.111 22.111 0 0 0 .108-1.028l.027-.357c.009-.116.012-.22.017-.326v-.159c0-.228 0-.467-.008-.712a20.795 20.795 0 0 0-.57-3.62 24.959 24.959 0 0 0-.147-.603c-.017-.064-.032-.127-.05-.19-.547-2.12-1.183-3.859-1.183-3.859v-.012-.02-.042-.237-.064c.011-.177.04-.353.087-.524.018-.06.038-.12.062-.18.124-.364.427-.64.802-.728.478-.112 1.193.027 2.262.652a4.38 4.38 0 0 1 .757.571c1.24 1.172 1.902 3.091 2.254 4.841l.037.19a20.078 20.078 0 0 1 .245 1.674c.008.089.018.177.025.261.007.085.017.17.022.25.022.264.037.508.048.714.028.548.023.884.023.884v.09a.032.032 0 0 0 0 .013v.152l-.025.249c-.015.145-.032.316-.053.507-.016.14-.032.294-.049.458-.037.338-.077.73-.121 1.143l-.027.233c-.04.354-.082.726-.122 1.098-.05.422-.098.845-.149 1.26l-.034.273a52.139 52.139 0 0 1-.348 2.492 2.353 2.353 0 0 0-.034.276.79.79 0 0 0 0 .087 1.733 1.733 0 0 0 0 .23c.097 1.427 1.644 1.666 1.644 1.666l7.085-.139 1.05-.022.613-.012 5.534-.108.517-.01 2.737-.054a1.85 1.85 0 0 1 .553.066c.855.221 1.67.572 2.42 1.04a2.786 2.786 0 0 1 .652.578c.374.45.603 1.005.656 1.589v.116c-.015.095-.015.186-.017.283z" opacity=".1"/>
            <path fill="#3A3768" fill-rule="nonzero" d="M142.05 124.48l-.28-.032c-4.251-.478-8.513-1.053-12.78-1.643l-.604-.085-1.083-.15-.913-.127c-1-.025-1.996-.118-2.983-.279a15.427 15.427 0 0 1-1.842-.389c-2.705-.37-5.426-.727-8.137-1.051.044-.238.1-.472.169-.704 0 0 1.606-6.324 1.706-9.687.035-1.202-.203-2.69-.526-4.108a29.049 29.049 0 0 0-.146-.607l-.045-.19c-.573-2.223-1.255-4.082-1.255-4.082a2.747 2.747 0 0 1 .08-.87 1.38 1.38 0 0 1 .436-.73.225.225 0 0 1 .032-.023c.445-.338 1.243-.362 2.663.47.288.17.554.373.793.607.067.064.135.132.2.2 1.14 1.237 1.746 3.13 2.063 4.824l.036.188c.037.211.07.42.1.62v.017a20.17 20.17 0 0 1 .22 2.925s-.066.668-.17 1.63c-.038.377-.084.8-.133 1.246v.067l-.025.237a173.44 173.44 0 0 1-.312 2.661 46.09 46.09 0 0 1-.306 2.14c-.351 1.958 1.607 2.259 1.607 2.259l6.684-.132 1.048-.02.614-.014h.34l5.302-.104h.507l3.043-.061a1.9 1.9 0 0 1 .553.067 8.72 8.72 0 0 1 2.42 1.038 2.874 2.874 0 0 1 .6.518c.814.941.944 2.295.324 3.374z"/>
            <path fill="#4C4C56" fill-rule="nonzero" d="M165.948 93.92l2.068 4.43h-.347l-2.424-4.377z"/>
            <path fill="#000" fill-rule="nonzero" d="M165.948 93.92l2.068 4.43h-.347l-2.424-4.377z" opacity=".1"/>
            <path fill="#4C4C56" fill-rule="nonzero" d="M165.948 98.35h2.068v.463l-2.068.053z"/>
            <path fill="#000" fill-rule="nonzero" d="M165.948 98.35h2.068v.463l-2.068.053z" opacity=".1"/>
            <path fill="#4C4C56" fill-rule="nonzero" d="M149.866 77.621V93.09c0 .634.514 1.148 1.148 1.148h25.781a1.141 1.141 0 0 0 1.142-1.163l-.293-15.481a1.141 1.141 0 0 0-1.141-1.12h-25.49a1.148 1.148 0 0 0-1.147 1.148z"/>
            <path fill="#000" fill-rule="nonzero" d="M149.866 77.621V93.09c0 .634.514 1.148 1.148 1.148h25.781a1.141 1.141 0 0 0 1.142-1.163l-.293-15.481a1.141 1.141 0 0 0-1.141-1.12h-25.49a1.148 1.148 0 0 0-1.147 1.148z" opacity=".1"/>
            <path fill="#4C4C56" fill-rule="nonzero" d="M148.936 77.621V93.09c0 .634.514 1.148 1.148 1.148h25.782a1.14 1.14 0 0 0 1.14-1.163l-.293-15.481a1.141 1.141 0 0 0-1.14-1.12H150.09a1.148 1.148 0 0 0-1.154 1.148z"/>
            <path fill="#2E3440" fill-rule="nonzero" d="M149.95 78.588v13.618c0 .634.514 1.148 1.148 1.148h23.873c.63 0 1.141-.51 1.141-1.141V78.58c0-.63-.511-1.14-1.14-1.14h-23.874a1.148 1.148 0 0 0-1.148 1.148z"/>
            <path fill="#4C4C56" fill-rule="nonzero" d="M160.28 93.983l2.267 4.367h5.122l-2.56-4.996z"/>
            <path fill="#4C4C56" fill-rule="nonzero" d="M158.474 98.35l-.378.463h7.852v-.463z"/>
            <path fill="url(#d)" fill-rule="nonzero" d="M124.362 76.316c-.563-1.582-.56-3.339-1.243-4.872a5.936 5.936 0 0 1-.286-.676 1.981 1.981 0 0 1-.077-.442l-.043.01-.042.012-.042.017-.039.024c.01.05.023.1.039.149.082.231.178.457.289.676.697 1.542.691 3.305 1.265 4.903a.46.46 0 0 0 .106.187c.025.023.054.041.086.053-.005-.019-.01-.029-.013-.04zm0 0c-.563-1.582-.56-3.339-1.243-4.872a5.936 5.936 0 0 1-.286-.676 1.981 1.981 0 0 1-.077-.442l-.043.01-.042.012-.042.017-.039.024c.01.05.023.1.039.149.082.231.178.457.289.676.697 1.542.691 3.305 1.265 4.903a.46.46 0 0 0 .106.187c.025.023.054.041.086.053-.005-.019-.01-.029-.013-.04zm0 0c-.563-1.582-.56-3.339-1.243-4.872a5.936 5.936 0 0 1-.286-.676 1.981 1.981 0 0 1-.077-.442l-.043.01-.042.012-.042.017-.039.024c.01.05.023.1.039.149.082.231.178.457.289.676.697 1.542.691 3.305 1.265 4.903a.46.46 0 0 0 .106.187c.025.023.054.041.086.053-.005-.019-.01-.029-.013-.04zm0 0c-.563-1.582-.56-3.339-1.243-4.872a5.936 5.936 0 0 1-.286-.676 1.981 1.981 0 0 1-.077-.442l-.043.01-.042.012-.042.017-.039.024c.01.05.023.1.039.149.082.231.178.457.289.676.697 1.542.691 3.305 1.265 4.903a.46.46 0 0 0 .106.187c.025.023.054.041.086.053-.005-.019-.01-.029-.013-.04zm0 0c-.563-1.582-.56-3.339-1.243-4.872a5.936 5.936 0 0 1-.286-.676 1.981 1.981 0 0 1-.077-.442l-.043.01-.042.012-.042.017-.039.024c.01.05.023.1.039.149.082.231.178.457.289.676.697 1.542.691 3.305 1.265 4.903a.46.46 0 0 0 .106.187c.025.023.054.041.086.053-.005-.019-.01-.029-.013-.04zm0 0c-.563-1.582-.56-3.339-1.243-4.872a5.936 5.936 0 0 1-.286-.676 1.981 1.981 0 0 1-.077-.442l-.043.01-.042.012-.042.017-.039.024c.01.05.023.1.039.149.082.231.178.457.289.676.697 1.542.691 3.305 1.265 4.903a.46.46 0 0 0 .106.187c.025.023.054.041.086.053-.005-.019-.01-.029-.013-.04zm0 0c-.563-1.582-.56-3.339-1.243-4.872a5.936 5.936 0 0 1-.286-.676 1.981 1.981 0 0 1-.077-.442l-.043.01-.042.012-.042.017-.039.024c.01.05.023.1.039.149.082.231.178.457.289.676.697 1.542.691 3.305 1.265 4.903a.46.46 0 0 0 .106.187c.025.023.054.041.086.053-.005-.019-.01-.029-.013-.04zm29.374 15.757l-.13-.024.17-.037a11.606 11.606 0 0 0 .605-.147l.19-.054.027-.009c1.576-.465-.262-.892-2.598-1.21h-.007c-2.522-.338-5.616-.56-5.616-.56l-.969.129h-.008c-1.184.155-3.052.412-3.35.507-.361.12-3.431.267-4.501.314a.467.467 0 0 0-.16-.169l-3.156-.145v.434l-.023-.01a4.33 4.33 0 0 0-.428-1.69l-.024-.048c-.815-1.545-.979-1.932-.979-1.932 0-.027-.013-.054-.022-.083-.273-.95-1.283-2.602-2.994-4.972l-.059-.083-.215-1.052-.037-.184h-1.077c.16-.913.411-1.809.748-2.673.022-.054.044-.108.067-.16l.014-.03c.023-.057.05-.112.076-.17h.187a5.145 5.145 0 0 0 4.954-5.112 5.033 5.033 0 0 0-.676-2.536c-.014-.024-.027-.047-.043-.071l-.027-.046-.06-.094c.385-.092.845.084 1.183-.132a.866.866 0 0 0 .29-.349c.08-.16.137-.33.168-.507v-.029-.01a2 2 0 0 0 .025-.348 1.877 1.877 0 0 0-.118-.703 1.937 1.937 0 0 0-1.089-1.092 7.376 7.376 0 0 0-.79-.215c-1.083-.29-1.997-1.003-3.044-1.4a5.52 5.52 0 0 0-2.28-.352c-.47.014-.932.13-1.353.339a5.79 5.79 0 0 0-.903.654c-.752.593-1.606 1.1-2.26 1.809a4.044 4.044 0 0 0-.328.406c-.058.082-.11.169-.17.253a.453.453 0 0 0-.407-.169 1.64 1.64 0 0 0-.292.022c-.17.029-1.429.362-1.429.534a5.95 5.95 0 0 0-1.447.89c-1.014.928-1.24 2.399-1.37 3.754a34.794 34.794 0 0 0-.168 4.734c.023.575.069 1.15.042 1.725a12.825 12.825 0 0 1-.3 2.008 61.593 61.593 0 0 1-.471 2.056c-.081.338-.211.715-.543.821l.124.017a.593.593 0 0 1-.124.06c.142.022.286.036.43.042h.1a.903.903 0 0 0 .548-.17c.013-.035.025-.069.036-.104a.571.571 0 0 0 .203-.315c.014.192.002.384-.034.572 0 .027-.01.056-.016.083-.09.413-.292.794-.582 1.102l.169-.128c-.053.07-.11.139-.169.204.243-.182.487-.369.73-.56a.35.35 0 0 0 .043-.032l.415-.328v.404c-.033 1.167-.082 4.033.183 4.717l.046.12c.302.78.433 1.116.394 1.522-.027.282.184 1.09.3 1.733.066.255.085.52.055.783-.023.155-.013.314.03.466.015.074.034.154.054.237 0 .029.014.059.022.09.154.615.372 1.376.144 1.678a1.34 1.34 0 0 0-.17.338c-.187.507-.217 1.2-.434 1.481-.253.327-.169.906-.148.98a.03.03 0 0 1 0 .01s-.012.065-.036.168c-.029.142-.074.36-.132.602v.017a8.6 8.6 0 0 1-.292 1.003c-.087.23-.17.395-.266.427-.338.124-.507 1.711-.507 1.711s-.774 1.256-.627 1.566c.033.071.07.14.11.208l-.075.115c-.414.664-1.014 1.871-.432 2.52.202.211.436.39.693.53-.03.067-.063.14-.097.22-.639 1.497-1.623 4.977 2.163 6.444.376.145.759.27 1.148.377.605.167 1.22.297 1.842.389.896.135 1.8.215 2.705.242a30.587 30.587 0 0 0 2.867-.044 31.574 31.574 0 0 0 3.471-.38l5.41-.97s2.273.082 3.11.562l.025.015s.137-.08.367-.235c.1-.068.218-.149.348-.245.857-.63 2.287-1.86 3.224-3.588l.019-.032.184-.023h.042l.132-.019.274-.039h.049c.685-.1 1.332-.21 1.332-.21l.056 1.632.029.817c.032.926.06 1.768.06 1.797 0 .028.697 1.86 1.476 3.705l.609.05c1.607.128 3.214.235 4.82.319l.6.03.375.02c-.27-1.64-.483-3.201-.483-3.201l-1.004-4.678s-.105-.969-.857-5.275c-.609-3.49-4.193-3.18-5.535-2.935-.137.026-.249.05-.339.068v-.262s-2.574.216-4.902.32l-.567.025c-.54.02-1.051.032-1.501.032-.395.005-.79-.01-1.183-.048-1.798-.206-3.847.411-3.847.411s-2.618.425-2.968.269a.901.901 0 0 0-.296-.06h-.17a.27.27 0 0 0 .17-.302c-.105-.433-.147-1.031.147-1.444.128-.182.338-.47.526-.732l.456-.627v-.049l.012-.184.11-1.643.264-1.522.017-.096.023-.136.017-.098.05.017c.75.26 1.598.443 2.199.234h.011c.048-.017.094-.036.14-.06h.026v.114l.01.197 2.822-.153h.042s.11-.545.228-1.295l.03-.188.036-.247c0-.039.012-.08.017-.12h.169c1.309-.047 3.135-.159 3.879-.43a.845.845 0 0 0 .255-.136c.316-.274 1.45-.666 2.565-1.004l.444-.132c.323-.095.634-.183.91-.26.639-.17 1.095-.295 1.095-.295s4.396.408 7.679-.54l.054-.016c1.236-.394.468-.725-1-1.004zm-31.19-21.978c0 .054.01.096.019.15a.423.423 0 0 0 .01.064c0 .022 0 .044.013.066.01.05.024.1.04.15.08.23.177.456.288.675.697 1.542.692 3.305 1.265 4.903a.46.46 0 0 0 .106.188c.025.023.055.04.087.052l.04.014h.048l-.02.032a.17.17 0 0 1-.013.024l-.011.018c-.227.382-.469.758-.712 1.089-.21.04-.41.121-.587.24l-.094.062-.041.03c-.06-.29-.14-.577-.215-.865a19.98 19.98 0 0 1-.652-4.69v-.1-.219c0-.41.01-.817.035-1.226-.003-.189.047-.375.144-.537a.37.37 0 0 1 .25-.122v.002zm1.816 6.223c-.563-1.583-.56-3.34-1.243-4.873a5.936 5.936 0 0 1-.286-.676 1.981 1.981 0 0 1-.077-.441l-.043.01-.042.012-.042.017-.039.024c.01.05.023.1.039.148.082.232.178.458.289.677.697 1.541.691 3.305 1.265 4.902a.46.46 0 0 0 .106.188c.025.023.054.04.086.052-.005-.02-.01-.03-.013-.042v.002zm0 0c-.563-1.583-.56-3.34-1.243-4.873a5.936 5.936 0 0 1-.286-.676 1.981 1.981 0 0 1-.077-.441l-.043.01-.042.012-.042.017-.039.024c.01.05.023.1.039.148.082.232.178.458.289.677.697 1.541.691 3.305 1.265 4.902a.46.46 0 0 0 .106.188c.025.023.054.04.086.052-.005-.02-.01-.03-.013-.042v.002zm0 0c-.563-1.583-.56-3.34-1.243-4.873a5.936 5.936 0 0 1-.286-.676 1.981 1.981 0 0 1-.077-.441l-.043.01-.042.012-.042.017-.039.024c.01.05.023.1.039.148.082.232.178.458.289.677.697 1.541.691 3.305 1.265 4.902a.46.46 0 0 0 .106.188c.025.023.054.04.086.052-.005-.02-.01-.03-.013-.042v.002zm0 0c-.563-1.583-.56-3.34-1.243-4.873a5.936 5.936 0 0 1-.286-.676 1.981 1.981 0 0 1-.077-.441l-.043.01-.042.012-.042.017-.039.024c.01.05.023.1.039.148.082.232.178.458.289.677.697 1.541.691 3.305 1.265 4.902a.46.46 0 0 0 .106.188c.025.023.054.04.086.052-.005-.02-.01-.03-.013-.042v.002zm0 0c-.563-1.583-.56-3.34-1.243-4.873a5.936 5.936 0 0 1-.286-.676 1.981 1.981 0 0 1-.077-.441l-.043.01-.042.012-.042.017-.039.024c.01.05.023.1.039.148.082.232.178.458.289.677.697 1.541.691 3.305 1.265 4.902a.46.46 0 0 0 .106.188c.025.023.054.04.086.052-.005-.02-.01-.03-.013-.042v.002zm0 0c-.563-1.583-.56-3.34-1.243-4.873a5.936 5.936 0 0 1-.286-.676 1.981 1.981 0 0 1-.077-.441l-.043.01-.042.012-.042.017-.039.024c.01.05.023.1.039.148.082.232.178.458.289.677.697 1.541.691 3.305 1.265 4.902a.46.46 0 0 0 .106.188c.025.023.054.04.086.052-.005-.02-.01-.03-.013-.042v.002z" transform="translate(1 6)"/>
            <path fill="#EFB7B9" fill-rule="nonzero" d="M131.015 83.205c-.266.3-.485.639-.649 1.005-.025.055-.05.11-.074.169-.748 1.69-1.001 4.083-1.001 4.083s-.463-.208-1.12-.533c-1.222-.605-3.108-1.613-3.87-2.416-.339-.363-.46-.685-.18-.91a2.08 2.08 0 0 0 .186-.169c.216-.216.413-.45.59-.7.243-.338.483-.715.71-1.102.133-.226.26-.454.379-.676l.047-.088c.507-.962.877-1.783.877-1.783s.17.054.443.15c1.263.451 4.74 1.822 3.662 2.97zM154.156 122.375s.207 1.532.469 3.148l-.6-.03c-1.605-.084-3.212-.19-4.82-.32-.913-2.115-1.86-4.625-1.86-4.664 0-.039-.029-.866-.061-1.789l-.032-.974c-.017-.476-.032-.906-.04-1.173 0-.182-.01-.29-.01-.29s-.87.151-1.65.258l-.347.046a9.53 9.53 0 0 1-.482.049 1.24 1.24 0 0 1-.374 0c-.267-.103.288-2.705.288-2.705l1.38-3.34.385-.93.169-.041c.082-.02.194-.044.328-.07 1.317-.241 4.835-.55 5.432 2.923.738 4.29.845 5.253.845 5.253l.98 4.65z"/>
            <path fill="#000" fill-rule="nonzero" d="M154.156 122.375s.207 1.532.469 3.148l-.6-.03c-1.605-.084-3.212-.19-4.82-.32-.913-2.115-1.86-4.625-1.86-4.664 0-.039-.029-.866-.061-1.789l-.032-.974c-.017-.476-.032-.906-.04-1.173 0-.182-.01-.29-.01-.29s-.87.151-1.65.258l-.347.046a9.53 9.53 0 0 1-.482.049 1.24 1.24 0 0 1-.374 0c-.267-.103.288-2.705.288-2.705l1.38-3.34.385-.93.169-.041c.082-.02.194-.044.328-.07 1.317-.241 4.835-.55 5.432 2.923.738 4.29.845 5.253.845 5.253l.98 4.65z" opacity=".05"/>
            <path fill="#EFB7B9" fill-rule="nonzero" d="M154.025 125.493c-1.605-.084-3.212-.19-4.82-.32l-.61-.049-.268-.022c-.757-1.827-1.43-3.614-1.43-3.646 0-.032-.029-.866-.061-1.79l-.083-2.437-.113.019-.047.008h-.061l-.272.046-.15.023c-.268.044-.593.093-.91.14l-.072.01-.185.023-.17.02c-.13.017-.253.03-.365.04l-.137.013c-.123.02-.25.02-.373 0-.267-.104.287-2.705.287-2.705l1.765-4.27.061-.016a7.512 7.512 0 0 1 .882-.164c1.532-.196 4.447-.14 4.986 2.992.739 4.29.845 5.253.845 5.253l.986 4.663s.129.963.315 2.169z"/>
            <path fill="#000" fill-rule="nonzero" d="M146.836 119.667l-.083-2.44s-1.69.296-2.478.354l.159-.538s2.894-.8 2.955-.348c.044.316-.328 1.996-.553 2.972z" opacity=".1"/>
            <path fill="#000" fill-rule="nonzero" d="M146.897 109.542v1.222s-.144 2.198-1.273 5.56a7.672 7.672 0 0 1-.495 1.158c-.318.045-.626.082-.854.099-.124.019-.25.019-.374 0-.267-.103.286-2.705.286-2.705l1.765-4.267.062-.017.384-.932s.19-.06.499-.118z" opacity=".1"/>
            <path fill="#444053" fill-rule="nonzero" d="M146.569 109.35v1.414s-.144 2.198-1.273 5.562c-.029.088-.061.17-.093.259-.032.09-.075.196-.117.29a7.97 7.97 0 0 1-.307.653c-.885 1.676-2.232 2.874-3.088 3.534-.125.096-.241.18-.338.252h-.008c-.17.115-.29.197-.369.246a2.487 2.487 0 0 1-.084.053c-.802-.492-3.079-.575-3.079-.575l-5.315.965c-1.162.2-2.334.334-3.512.4l-.603.028c-.348.014-.71.022-1.08.024-.3 0-.604 0-.913-.012-1-.025-1.996-.118-2.983-.279-.542-.09-1.08-.208-1.609-.357-.378-.104-.75-.229-1.114-.372-3.72-1.46-2.75-4.924-2.124-6.424.034-.08.066-.152.097-.22.138-.306.242-.485.242-.485l.246-.597.404-.979.09-.214.025-.063.3-.725 4.226-.548 3.106-.402.945-.122.64-.083 1.223-.159.46-.059c.283-.044.57-.067.857-.068.155-.007.31.016.456.068.339.154 2.915-.267 2.915-.267s2.01-.615 3.775-.41a21 21 0 0 0 2.622.016l.217-.01.28-.012h.061c2.286-.106 4.822-.323 4.822-.323z"/>
            <path fill="#000" fill-rule="nonzero" d="M131.362 113.596s-2.029 4.617-2.113 4.698c-.085.081-.082 1.522 0 1.437.08-.084 2.894-6.32 2.894-6.32l-.781.185zM141.191 109.69s-1.026.663-1.334 1.198c-.308.534-3.119 5.847-3.816 6.627-.578.697-1.1 1.44-1.56 2.22-.081.14-.081 1.022.41.18.493-.841.371-.983 1.335-2.028.963-1.045 2.028-3.407 2.44-3.879.413-.471.987-1.888 1.705-2.73l1.376-1.608-.556.02zM141.438 118.808s-.719-.492-1.395.348 1.395-.348 1.395-.348zM142.32 119.062s-.595 1.038-.882 1.12c-.288.083.882-1.12.882-1.12zM141.438 119.32s-.472.822-.883.74l.883-.74z" opacity=".1"/>
            <path fill="#EFB7B9" fill-rule="nonzero" d="M138.116 97.138s4.35-.184 4.78-.328c.432-.144 4.248-.636 4.248-.636s11.307.8 8.086 1.765c-3.22.965-7.593.553-7.593.553s-4.268 1.109-4.924 1.69c-.656.582-5.5.596-5.5.596l.903-3.64z"/>
            <path fill="#000" fill-rule="nonzero" d="M138.116 97.138s4.35-.184 4.78-.328c.432-.144 4.248-.636 4.248-.636s11.307.8 8.086 1.765c-3.22.965-7.593.553-7.593.553s-4.268 1.109-4.924 1.69c-.656.582-5.5.596-5.5.596l.903-3.64z" opacity=".05"/>
            <path fill="#A36468" fill-rule="nonzero" d="M122.642 87.227s-3.982 1.353-2.053 4.802c1.93 3.449 4.413 5.072 4.413 5.072l6.402 4.432s2.688 1.539 3.919.903l2.01-.169.338-5.275s-1.69 1.314-3.53-.507c-1.84-1.82-4.105-3.058-4.289-4.042-.184-.984-4.893-6.058-7.21-5.216z"/>
            <path fill="#67647E" fill-rule="nonzero" d="M135.22 98.39s2.072.74 1.991.78c-.08.04-1.991.759-1.991.759l.143 2.811 2.812-.153s1.026-5.12.144-5.633l-3.1-.144v1.58z"/>
            <path fill="#000" fill-rule="nonzero" d="M135.22 98.39s2.072.74 1.991.78c-.08.04-1.991.759-1.991.759l.143 2.811 2.812-.153s1.026-5.12.144-5.633l-3.1-.144v1.58zM131.015 83.205c-.266.3-.485.639-.649 1.005-.025.055-.05.11-.074.169-1.51 0-2.595-1.174-3.522-2.223-.169-.195-.597.1-.737-.119l-.047-.076.047-.088c.507-.962.877-1.783.877-1.783s.17.054.443.15c1.263.446 4.74 1.817 3.662 2.965z" opacity=".1"/>
            <path fill="#EFB7B9" fill-rule="nonzero" d="M135.41 79.123a5.089 5.089 0 0 1-5.04 5.087h-.05a5.08 5.08 0 0 1-4.284-2.342 5.09 5.09 0 1 1 9.375-2.745z"/>
            <path fill="#000" fill-rule="nonzero" d="M130.234 110.681s-.387.474-.815.915c-.323.338-.668.647-.889.727-.507.186-2.832 1.95-2.832 1.95s-1.846 1.252-2.318 1.62c-.471.369-2.175.144-2.175.144s-1.64-.358-2.656-1.014c.098-.241.211-.476.338-.703l1.067-2.587 4.226-.546 6.054-.506z" opacity=".1"/>
            <path fill="#67647E" fill-rule="nonzero" d="M130.151 110.353s-.385.474-.813.915c-.323.338-.676.647-.89.727-.506.184-2.83 1.95-2.83 1.95s-1.849 1.252-2.32 1.62c-.472.37-2.175.144-2.175.144s-2.34-.507-3.161-1.437c-.575-.647.02-1.848.426-2.509.17-.282.313-.466.313-.466l11.45-.944zM133.19 94.45c-1.397-.124-5.994-5.748-5.994-5.748l.105-.144.964-1.334h2.253l.249 1.23c1.714 2.405 2.723 4.077 2.997 5.034.198.696.01 1.014-.575.962z"/>
            <path fill="#000" fill-rule="nonzero" d="M133.19 94.45c-1.397-.124-5.994-5.748-5.994-5.748l.105-.144a25.958 25.958 0 0 1 2.318 2.42c3.364 3.96 4.03 2.855 4.145 2.51.198.696.01 1.014-.575.962zM130.151 110.353s-.385.474-.813.915a2.306 2.306 0 0 1-.705.152c-.534-.02-1.765.822-1.765.822s-2.174-.124-2.585.101c-.41.225-1.991.267-1.991.267-2.893.825-3.693-.427-3.904-.845.17-.282.313-.467.313-.467l11.45-.945z" opacity=".1"/>
            <path fill="#A36468" fill-rule="nonzero" d="M135.176 98.134c0 .079-.015.158-.026.235-.01.076-.02.153-.032.226a3.72 3.72 0 0 1-.37 1.199c-.368.615-1.498 3.016-1.498 3.016l-.076.443-.039.231-.04.229-.276 1.618-.123 1.868s-.677.943-.964 1.352c-.287.41-.247 1.006-.144 1.437.103.431-.943.492-.943.492s-1.478.719-2.012.698c-.534-.02-1.765.819-1.765.819s-2.174-.124-2.585.103c-.41.226-1.991.267-1.991.267-3.098.88-3.796-.617-3.94-.925-.143-.308.616-1.559.616-1.559s.169-1.58.492-1.704c.323-.123.718-2.215.718-2.215s-.123-.637.144-.985.247-1.334.595-1.806c.348-.471-.368-2.052-.245-2.463.123-.41-.39-2.073-.35-2.504.04-.43-.101-.78-.431-1.641-.28-.736-.201-4.004-.17-4.94 0-.16.01-.25.01-.25s.287-.925 1.046-2.771c.575-1.399 1.868-1.928 2.461-2.1a3.09 3.09 0 0 1 .31-.076c.149.021.295.058.436.11.598.2 1.795.77 3.503 2.366.755.708 1.468 1.46 2.135 2.252 3.85 4.524 4.164 2.413 4.164 2.413s.17.385.962 1.924c.424.818.502 1.795.428 2.64z"/>
            <path fill="#000" fill-rule="nonzero" d="M128.838 86.975l-3.862-3.08s-1.391.17-1.966 2.506l3.975 3.48 1.853-2.906z" opacity=".1"/>
            <path fill="#67647E" fill-rule="nonzero" d="M128.838 86.975l-.677.946-.686.968-.517.76-3.174-2.674-.546-.473-.306-.26c.31-1.263.86-1.894 1.297-2.198.199-.152.43-.256.676-.303l3.933 3.234z"/>
            <path fill="#EFB7B9" fill-rule="nonzero" d="M155.392 99.17c-3.222.964-7.592.554-7.592.554s-4.27 1.108-4.925 1.691c-.423.37-2.582.507-4.058.563-.82.03-1.433.032-1.433.032l.9-3.64.522-.023c1.168-.055 3.922-.193 4.26-.306.431-.144 4.247-.636 4.247-.636s11.3.8 8.08 1.765z"/>
            <path fill="#000" fill-rule="nonzero" d="M135.118 98.587a3.72 3.72 0 0 1-.37 1.198c-.368.616-1.498 3.016-1.498 3.016l-.155.912a11.12 11.12 0 0 1-1.522-.7l-6.407-4.438s-2.484-1.621-4.413-5.072c-1.929-3.45 2.053-4.801 2.053-4.801 2.317-.846 7.017 4.226 7.202 5.212.184.985 2.443 2.216 4.289 4.042.243.247.52.46.821.63z" opacity=".1"/>
            <path fill="#000" fill-rule="nonzero" d="M135.176 98.134c-.015.16-.034.314-.058.461a3.72 3.72 0 0 1-.37 1.199c-.368.615-1.498 3.016-1.498 3.016l-.076.443c-.554-.2-1.091-.444-1.606-.73l-6.402-4.44s-2.484-1.621-4.413-5.072c-1.929-3.45 2.053-4.803 2.053-4.803 2.317-.845 7.017 4.226 7.202 5.212.184.986 2.443 2.217 4.289 4.044a3.7 3.7 0 0 0 .879.67z" opacity=".1"/>
            <path fill="#A36468" fill-rule="nonzero" d="M137.827 98.227l-.328 5.273-2.012.169a.984.984 0 0 1-.137.059c-1.282.47-3.782-.962-3.782-.962l-6.402-4.438s-2.484-1.621-4.413-5.072c-1.929-3.45 2.053-4.801 2.053-4.801 2.317-.846 7.017 4.226 7.202 5.212.184.986 2.443 2.216 4.289 4.042.27.272.582.5.923.676a2.52 2.52 0 0 0 2.607-.158z"/>
            <path fill="#000" fill-rule="nonzero" d="M137.827 98.227l-.328 5.273-2.012.169a.984.984 0 0 1-.137.059l-.13-2.563s1.908-.719 1.991-.76c.083-.04-1.991-.779-1.991-.779v-1.225a2.52 2.52 0 0 0 2.607-.174z" opacity=".1"/>
            <path fill="#000" fill-rule="nonzero" d="M138.809 101.97c-.82.03-1.434.032-1.434.032l.91-3.632.52-.023c.335.576.192 2.27.004 3.623z" opacity=".1"/>
            <path fill="#67647E" fill-rule="nonzero" d="M135.384 99.621s2.072.74 1.991.78c-.08.04-1.991.759-1.991.759l.143 2.811 2.812-.154s1.026-5.119.144-5.633l-3.1-.143v1.58z"/>
            <path fill="#000" fill-rule="nonzero" d="M123.093 102.987s-.698.656-1.273.83l1.273-.83zM121.431 104.937s1.703-.063 1.907-.411c.205-.348-1.907.41-1.907.41zM120.59 107.378c.102 0 2.153-.288 2.236-.555l-2.237.555zM119.954 108.938c.738-.022 1.99-.821 1.99-.821l-1.99.821zM124.735 109.347s4.453 0 4.657-.82c.205-.82-4.657.82-4.657.82zM128.079 97.877c.082 0 3.51 0 3.837-.472.328-.472-3.837.472-3.837.472zM124.305 84.44c.028.167.043.337.044.507 0 .189-.017.377-.05.563a4.874 4.874 0 0 1-.318 1.026l-.036.083c-.05.118-.105.233-.16.348a9.577 9.577 0 0 1-.886 1.46 15.973 15.973 0 0 1-2.658 2.765c-.173.145-.347.289-.522.431 0-.159.008-.25.008-.25s.287-.925 1.046-2.771c.575-1.398 1.869-1.927 2.462-2.1l-.306-.26c.31-1.263.859-1.894 1.297-2.198.027.125.059.257.08.396zM134.667 76.48a.595.595 0 0 0-.149.06c-.321.177-.414.598-.676.863-.303.313-.776.36-1.207.414-.431.055-.913.161-1.141.531-.17.276-.154.622-.215.94a.3.3 0 0 1-.066.156.304.304 0 0 1-.206.067c-.846.06-1.46-.231-2.252-.436-.372-.094-.805-.083-1.089.17-.257.23-.328.61-.321.956v.03c.036.337.046.677.03 1.015a1.674 1.674 0 0 1-1.523 1.422.517.517 0 0 1-.254-.037c.15-.257.295-.508.427-.763a5.09 5.09 0 1 1 8.635-5.39l.007.002z" opacity=".1"/>
            <path fill="#444053" fill-rule="nonzero" d="M136.06 75.83a.859.859 0 0 1-.282.348c-.386.25-.939-.026-1.341.197-.323.178-.414.599-.676.864-.301.313-.775.36-1.207.414-.433.055-.912.161-1.141.531-.17.276-.153.62-.215.94a.286.286 0 0 1-.066.156.31.31 0 0 1-.206.067c-.846.06-1.461-.233-2.252-.436-.37-.094-.803-.083-1.087.17-.284.251-.328.611-.323.958.035.346.046.694.032 1.041a1.69 1.69 0 0 1-1.522 1.422.416.416 0 0 1-.312-.08.448.448 0 0 1-.104-.185c-.563-1.583-.557-3.34-1.24-4.874a5.51 5.51 0 0 1-.286-.677 2.033 2.033 0 0 1-.078-.44.423.423 0 0 0-.193.079.355.355 0 0 0-.054.057 1.003 1.003 0 0 0-.142.536c-.126 2.114.08 4.234.609 6.284a6.57 6.57 0 0 1 .292 1.577 4.215 4.215 0 0 1-.405 1.672c-1.06 2.445-3.19 4.235-5.309 5.853.44-.471.667-1.102.629-1.746a.69.69 0 0 1-.536.48c-.25.043-.507.039-.756-.012.325-.106.452-.488.533-.82.165-.676.32-1.358.461-2.047.152-.657.251-1.326.298-1.998.025-.572-.019-1.145-.042-1.718-.05-1.572.006-3.145.169-4.708.125-1.353.351-2.815 1.344-3.738a5.84 5.84 0 0 1 1.42-.886c0-.17 1.24-.507 1.403-.531.068-.013.137-.021.206-.024a.424.424 0 0 1 .442.232 3.914 3.914 0 0 1 .52-.725c.644-.71 1.48-1.21 2.225-1.813.274-.245.57-.464.886-.652a3.189 3.189 0 0 1 1.327-.338 5.385 5.385 0 0 1 2.24.351c1.028.396 1.926 1.106 2.99 1.393.262.057.52.129.775.215a1.88 1.88 0 0 1 .98 2.607l-.006.005z"/>
            <g fill="#000" fill-rule="nonzero" opacity=".1">
                <path d="M118.94 90.974c.122-.318.175-.658.153-.998a.693.693 0 0 1-.538.48c-.064.016-.13.026-.196.03-.084.27-.218.53-.476.615.248.05.505.055.755.013a.845.845 0 0 0 .301-.14zM136.182 74.484a1.89 1.89 0 0 1-.203.767.87.87 0 0 1-.284.338c-.384.25-.938-.023-1.34.198-.322.177-.415.6-.677.864-.303.313-.776.362-1.207.414-.431.052-.913.17-1.141.53-.17.277-.154.623-.215.94a.237.237 0 0 1-.272.226c-.846.059-1.46-.234-2.252-.438-.372-.095-.805-.083-1.089.169-.257.233-.328.61-.321.959.035.345.046.692.03 1.04a1.68 1.68 0 0 1-1.521 1.423.421.421 0 0 1-.313-.08.455.455 0 0 1-.103-.187c-.563-1.583-.56-3.34-1.243-4.873a5.917 5.917 0 0 1-.284-.676 1.985 1.985 0 0 1-.08-.441.372.372 0 0 0-.246.137 1.038 1.038 0 0 0-.142.536 20.404 20.404 0 0 0 .169 4.057c-.122-1.13-.15-2.27-.083-3.405a1.003 1.003 0 0 1 .142-.536.355.355 0 0 1 .247-.137c.01.15.035.298.078.442.08.23.176.457.285.676.677 1.535.677 3.29 1.241 4.872.02.07.056.134.105.188a.41.41 0 0 0 .311.093 1.69 1.69 0 0 0 1.522-1.422 7.408 7.408 0 0 0-.032-1.041c0-.349.066-.726.323-.959.284-.257.716-.267 1.087-.169.79.203 1.403.495 2.252.436a.31.31 0 0 0 .206-.067c.037-.045.06-.1.066-.158.062-.317.044-.664.215-.938.23-.37.71-.478 1.14-.532.432-.055.907-.1 1.21-.413.255-.265.346-.686.676-.866.4-.221.955.054 1.34-.196a.859.859 0 0 0 .283-.346c.222-.442.265-.953.12-1.425zM124.185 84.203a4.227 4.227 0 0 1-.404 1.672c-.948 2.186-2.754 3.85-4.639 5.332-.08.442-.284.853-.588 1.184 2.116-1.617 4.25-3.407 5.308-5.852a4.215 4.215 0 0 0 .406-1.672 3.702 3.702 0 0 0-.086-.735.768.768 0 0 1 .003.07z"/>
            </g>
            <path fill="#000" fill-rule="nonzero" d="M124.396 74.465c-.152.7-.361 1.61-.519 2.078a2.536 2.536 0 0 1-.04-.296.418.418 0 0 0-.191.08c0-.493.059-1.225.11-1.772a.426.426 0 0 1 .443.231c.054-.108.126-.216.197-.321z" opacity=".1"/>
            <path fill="#67647E" fill-rule="nonzero" d="M124.315 74.465c-.152.7-.361 1.61-.519 2.078a2.221 2.221 0 0 1-.04-.296.423.423 0 0 0-.193.08c0-.493.06-1.225.112-1.772a.424.424 0 0 1 .44.231c.062-.108.138-.216.2-.321z"/>
            <g fill-rule="nonzero" opacity=".7">
                <path fill="#2E001E" d="M158.741 36.522h28.009v27.243H158.74z"/>
                <path fill="#FF2BC2" d="M157.475 35.243v29.795h30.555V35.243h-30.555zm1.273 1.274h28.009v27.248H158.74l.007-27.248z"/>
                <path fill="#FF2BC2" d="M179.664 47.763a1.74 1.74 0 0 0-.738-.128c-1.603 0-2.673 1.236-2.673 3.285 0 2.343 1.095 3.285 2.52 3.285.3.009.598-.039.88-.14v-6.302h.011zm-5.707 3.26c0-2.967 1.909-5.285 5.041-5.285.221-.005.442.004.661.027v-3.31c0-.071.058-.129.129-.129h2.049c.101 0 .127.04.127.103v11.635a8.97 8.97 0 0 0 .064 1.248c0 .09 0 .103-.076.14a7.596 7.596 0 0 1-3.26.739c-2.762 0-4.733-1.706-4.733-5.168h-.002zm-4.342-2.063l3.57 6.908c.064.102.025.203-.077.203h-2.215a.249.249 0 0 1-.267-.17 460.793 460.793 0 0 1-2.495-5.232h-.025a188.89 188.89 0 0 1-2.42 5.241.245.245 0 0 1-.23.14h-2.113c-.127 0-.138-.102-.076-.178l3.488-6.709-3.373-6.65a.113.113 0 0 1 .09-.192h2.189c.127 0 .191.026.228.14.803 1.691 1.618 3.361 2.382 5.072h.026c.737-1.68 1.552-3.38 2.33-5.041.062-.103.1-.17.228-.17h2.05c.102 0 .139.077.076.192l-3.36 6.455-.006-.009z"/>
            </g>
            <g fill-rule="nonzero" opacity=".7">
                <path fill="#EA6C00" d="M42.648 47.493l9.573 18.734-16.088-18.734zM61.795 47.493l-9.573 18.734L68.31 47.493z"/>
                <path fill="#FDAD00" d="M42.648 47.493h19.143l-9.57 18.734z"/>
                <path fill="#FDD231" d="M52.22 37.11l-9.068.96-.507 9.423zM52.22 37.11l9.067.96.508 9.423z"/>
                <path fill="#FDAD00" d="M68.31 47.493l-7.02-9.424.508 9.424zM36.133 47.493l7.02-9.424-.508 9.424z"/>
                <path fill="#FEEEB7" d="M52.22 37.11l-9.572 10.383h19.143z"/>
            </g>
        </g>
    </g>
</svg>
