<svg xmlns="http://www.w3.org/2000/svg" xmlns:xlink="http://www.w3.org/1999/xlink" width="200" height="120" viewBox="0 0 200 120">
    <defs>
        <path id="a" d="M4 0h192a4 4 0 0 1 4 4v116H0V4a4 4 0 0 1 4-4z"/>
    </defs>
    <g fill="none" fill-rule="evenodd">
        <mask id="b" fill="#fff">
            <use xlink:href="#a"/>
        </mask>
        <use fill="#FFF" xlink:href="#a"/>
        <g fill-rule="nonzero" mask="url(#b)">
            <g transform="translate(0 -21)">
                <path fill="#F2F2F2" d="M42.211 88.96l35.459 23.912-18.022 26.723-35.458-23.913z"/>
                <path fill="#2F2E41" d="M22.91 135.86l-.366-.19c4.769-9.22 2.219-21.193-.76-29.614A90.763 90.763 0 0 0 14.082 89.8l.349-.221a91.227 91.227 0 0 1 7.742 16.338c3.006 8.498 5.574 20.59.738 29.942zM23.766 104.324l2.68-14.67.407.074-2.68 14.67z"/>
                <path fill="#2F2E41" d="M8.32 102.434l.302-.281 13.843 14.876-.302.282zM26.487 128.207l7.022-9.713.335.242-7.022 9.713z"/>
                <circle cx="27.686" cy="83.699" r="2.066" fill="#3F3D56"/>
                <circle cx="5.165" cy="99.608" r="2.066" fill="#3F3D56"/>
                <circle cx="14.256" cy="101.674" r="2.066" fill="#3F3D56"/>
                <circle cx="10.124" cy="109.732" r="2.066" fill="#3F3D56"/>
                <circle cx="35.95" cy="114.897" r="2.066" fill="#3F3D56"/>
                <circle cx="29.132" cy="117.17" r="2.066" fill="#3F3D56"/>
                <circle cx="33.884" cy="123.781" r="2.066" fill="#3F3D56"/>
                <circle cx="12.19" cy="86.178" r="2.066" fill="#3F3D56"/>
                <path fill="#3F3D56" d="M105.785 138.037c4.383 4.7-.377 21.126-52.892 8.885C24.443 140.29 0 140.434 0 138.037c0-2.396 23.68.207 52.893.207 29.211 0 51.258-1.959 52.892-.207z"/>
                <path fill="#000" d="M105.785 138.037c4.383 4.7-.377 21.126-52.892 8.885C24.443 140.29 0 140.434 0 138.037c0-2.396 23.68.207 52.893.207 29.211 0 51.258-1.959 52.892-.207z" opacity=".1"/>
                <path fill="#3F3D56" d="M105.785 138.037c4.383 4.7-.377 16.58-52.892 4.34C24.443 135.744 0 140.433 0 138.036c0-2.396 23.68-4.338 52.893-4.338 29.211 0 51.258 2.586 52.892 4.338z"/>
                <path fill="#2F2E41" d="M50.78 33.079h2.376a5.705 5.705 0 0 1 5.705 5.705v8.081H45.074v-8.081a5.705 5.705 0 0 1 5.705-5.705z"/>
                <path fill="#A0616A" d="M49.446 44.2s.578 4.625-.722 4.914c-1.3.289-1.879 2.023-1.879 2.023l4.335 2.745 4.48-.867-.433-3.323s-1.156-3.324-.578-5.492c.578-2.167-5.203 0-5.203 0z"/>
                <path fill="#000" d="M49.446 44.2s.578 4.625-.722 4.914c-1.3.289-1.879 2.023-1.879 2.023l4.335 2.745 4.48-.867-.433-3.323s-1.156-3.324-.578-5.492c.578-2.167-5.203 0-5.203 0z" opacity=".1"/>
                <path fill="#A0616A" d="M43.666 97.813l1.156 7.515s-.289 7.659 1.734 14.45l2.023 6.793 2.023-2.313.578-9.248s.145-3.324-.433-5.925l.433-12.139-7.514.867zM54.36 96.513l1.011 13.15s-.433 14.017-.578 14.45c-.144.434 2.89 1.012 2.89 1.012s4.625-10.982 3.18-19.653c0 0-.868-7.37.289-9.248 1.156-1.879-6.792.289-6.792.289z"/>
                <circle cx="51.903" cy="41.455" r="5.058" fill="#A0616A"/>
                <path fill="#2F2E41" d="M47.857 50.27s.578 2.167 3.323 2.023c2.746-.145 4.047-2.601 4.047-2.601s3.323 1.734 4.913 1.59l-.434 7.08s-2.745 7.515-2.167 9.249c.578 1.734 12.283 19.942 10.838 27.023 0 0 1.445 2.023-4.046 2.457-5.492.433-5.347-.578-9.827 1.445-4.48 2.023-10.694.867-12.139.578-1.445-.29-6.503-1.156-6.503-1.156s1.156-21.388 7.804-28.613l-.145-13.006-.578-4.913s4.663-2.312 4.788-1.734l.126.578z"/>
                <path fill="#A0616A" d="M69.244 59.952s7.37 4.624 4.48 6.503c-2.89 1.878-13.209 6.613-13.209 6.613s-7.89-3.723-5.866-5.168c2.023-1.445 5.491 2.601 5.491 2.601l8.96-5.347-2.313-2.601 2.457-2.601zM39.186 63.854v21.098s-.722 8.092 2.023 7.514c2.746-.578.578-7.803.578-7.803l.867-12.428V65.3l-3.468-1.445z"/>
                <path fill="#2F2E41" d="M51.036 120.79s-1.3 2.746-4.046 1.156c0 0 .722 2.457.722 3.035 0 .578.723 3.613 1.012 3.902.289.289 0 6.647 1.445 6.936 1.445.29 2.746-3.324 2.746-4.624 0-1.3-.434-5.492-.434-5.492s.289-2.745-1.3-3.612l-.145-1.3z"/>
                <path fill="#2F2E41" d="M58.55 123.97l-4.046-.579-.867 3.469s-2.312 6.213-2.457 7.225c-.144 1.012-2.745 5.202-.433 5.202 2.312 0 4.624.145 5.058-1.156.433-1.3 1.3-5.78 2.023-7.37.722-1.59-.29-3.179-.29-3.179l1.012-3.613zM58.84 51.86l1.3-.579s1.3 0 3.324 2.312c2.023 2.313 7.37 6.937 7.37 6.937s-3.613 3.613-4.48 3.324c-.867-.29-7.515-6.648-7.515-6.648V51.86zM43.666 51.426h-.723s-3.034.289-3.468 4.046c-.433 3.757-1.156 8.237-1.445 8.67-.289.434 3.757 2.313 4.48 2.313.722 0 1.878-11.272 1.878-11.272l-.722-3.757zM55.662 39.154H48.7l-1.576-3.622h9.719z"/>
                <ellipse cx="46.805" cy="40.907" fill="#A0616A" rx="1" ry="1" transform="rotate(-16.16 46.805 40.907)"/>
                <ellipse cx="56.868" cy="41.196" fill="#A0616A" rx="1" ry="1" transform="rotate(-73.84 56.868 41.196)"/>
                <path fill="#F2F2F2" d="M120.058.206l79.912 44.202-25.401 45.922-79.912-44.202z"/>
                <path fill="#2E3440" d="M92.744 37.72h30.372v39.876H92.744z"/>
                <path fill="#3F3D56" d="M101.111 44.021h13.636v13.636h-13.636zM95.946 60.55h23.967v1.653H95.946zM95.946 65.096h23.967v1.653H95.946zM95.946 69.641h23.967v1.653H95.946z"/>
                <path fill="#2E3440" d="M157.207 72.637h30.372v39.876h-30.372z"/>
                <path fill="#3F3D56" d="M161.649 77.905h21.488v2.479h-21.488zM161.649 83.277h21.488v2.479h-21.488zM161.649 88.649h21.488v2.479h-21.488zM161.649 94.021h21.488V96.5h-21.488zM161.649 99.393h21.488v2.479h-21.488zM161.649 104.765h21.488v2.479h-21.488z"/>
                <path fill="#2E3440" d="M148.322 5.488h30.372v39.876h-30.372z"/>
                <path fill="#3F3D56" d="M152.764 18.815h21.488v2.479h-21.488zM152.764 24.186h21.488v2.479h-21.488zM152.764 29.558h21.488v2.479h-21.488z"/>
                <ellipse cx="187.61" cy="71.769" fill="#FFF" rx="3.668" ry="3.674"/>
                <path fill="#57B894" d="M187.61 67.468a4.383 4.383 0 1 0 4.384 4.384 4.396 4.396 0 0 0-4.384-4.384zm-.9 6.72l-2.246-2.246.63-.63 1.619 1.619 3.416-3.417.63.63-4.048 4.045z"/>
                <ellipse cx="123.148" cy="37.265" fill="#FFF" rx="3.668" ry="3.674"/>
                <path fill="#57B894" d="M123.148 32.964a4.383 4.383 0 1 0 4.383 4.383 4.396 4.396 0 0 0-4.383-4.383zm-.9 6.72L120 37.439l.63-.63 1.619 1.618 3.416-3.416.63.63-4.048 4.045z"/>
            </g>
        </g>
    </g>
</svg>
