<svg xmlns="http://www.w3.org/2000/svg" width="114" height="64" viewBox="0 0 114 64">
    <g fill="none" fill-rule="evenodd">
        <path fill="#4C566A" d="M111 0a3 3 0 0 1 3 3v61h-6V3a3 3 0 0 1 3-3z"/>
        <path fill="#88C0D0" d="M111 11a3 3 0 0 1 3 3v50h-6V14a3 3 0 0 1 3-3z"/>
        <path fill="#4C566A" d="M93 0a3 3 0 0 1 3 3v61h-6V3a3 3 0 0 1 3-3z"/>
        <path fill="#88C0D0" d="M93 13a3 3 0 0 1 3 3v48h-6V16a3 3 0 0 1 3-3z"/>
        <path fill="#4C566A" d="M75 0a3 3 0 0 1 3 3v61h-6V3a3 3 0 0 1 3-3z"/>
        <path fill="#88C0D0" d="M75 32a3 3 0 0 1 3 3v29h-6V35a3 3 0 0 1 3-3z"/>
        <path fill="#4C566A" d="M57 0a3 3 0 0 1 3 3v61h-6V3a3 3 0 0 1 3-3z"/>
        <path fill="#88C0D0" d="M57 27a3 3 0 0 1 3 3v34h-6V30a3 3 0 0 1 3-3z"/>
        <g>
            <path fill="#4C566A" d="M39 0a3 3 0 0 1 3 3v61h-6V3a3 3 0 0 1 3-3z"/>
            <path fill="#88C0D0" d="M39 32a3 3 0 0 1 3 3v29h-6V35a3 3 0 0 1 3-3z"/>
        </g>
        <g>
            <path fill="#4C566A" d="M21 0a3 3 0 0 1 3 3v61h-6V3a3 3 0 0 1 3-3z"/>
            <path fill="#88C0D0" d="M21 35a3 3 0 0 1 3 3v26h-6V38a3 3 0 0 1 3-3z"/>
        </g>
        <g>
            <path fill="#4C566A" d="M3 0a3 3 0 0 1 3 3v61H0V3a3 3 0 0 1 3-3z"/>
            <path fill="#88C0D0" d="M3 16a3 3 0 0 1 3 3v45H0V19a3 3 0 0 1 3-3z"/>
        </g>
    </g>
</svg>
