<svg xmlns="http://www.w3.org/2000/svg" width="26" height="20" viewBox="0 0 26 20">
    <path fill="#FFF" fill-rule="nonzero" d="M20.783 12.38c.367-.737.56-1.547.56-2.38 0-2.97-2.437-5.385-5.433-5.385a5.46 5.46 0 0 0-4.46 2.316c-.066-.002-.13-.008-.196-.008-2.974 0-5.518 1.928-6.33 4.686a3.893 3.893 0 0 0-.655-.07C1.915 11.538 0 13.436 0 15.768 0 18.102 1.915 20 4.27 20h13.97c2.354 0 4.269-1.898 4.269-4.23a4.21 4.21 0 0 0-1.725-3.39h-.001zM15.91 6.154c2.14 0 3.881 1.725 3.881 3.846 0 .595-.14 1.173-.402 1.699a4.284 4.284 0 0 0-1.15-.16c-.197 0-.431.03-.656.07a6.52 6.52 0 0 0-4.35-4.385 3.902 3.902 0 0 1 2.677-1.07zm2.33 12.308H4.268c-1.497 0-2.716-1.209-2.716-2.693s1.219-2.692 2.716-2.692c.108 0 .28.026.463.062v.707c0 .425.348.77.776.77a.773.773 0 0 0 .776-.77v-1.238c.417-2.405 2.498-4.146 4.97-4.146 2.473 0 4.554 1.742 4.97 4.148v1.236c0 .425.348.77.776.77a.773.773 0 0 0 .776-.77v-.706c.183-.037.357-.063.463-.063 1.498 0 2.717 1.208 2.717 2.692 0 1.484-1.22 2.693-2.717 2.693h.002zM15.91 3.077a.773.773 0 0 0 .777-.77V.77A.773.773 0 0 0 15.91 0a.773.773 0 0 0-.776.77v1.538c0 .424.348.769.776.769zm9.314 6.153h-1.552a.773.773 0 0 0-.776.77c0 .425.347.77.776.77h1.552A.773.773 0 0 0 26 10a.773.773 0 0 0-.776-.77zm-3.825-3.9a.777.777 0 0 0 .548-.226l1.098-1.087a.764.764 0 0 0 0-1.088.78.78 0 0 0-1.098 0L20.85 4.017a.764.764 0 0 0 0 1.087c.151.15.35.226.549.226zM9.873 5.104a.777.777 0 0 0 1.325-.543c0-.205-.082-.4-.227-.544L9.873 2.929a.78.78 0 0 0-1.097 0 .764.764 0 0 0 0 1.088l1.097 1.087z"/>
</svg>
